<svg width="525" height="525" xmlns="http://www.w3.org/2000/svg">

 <g>
  <title>Layer 1</title>
  <path id="svg_1" fill="#846e50" d="M250.7,356.5c-3.9,0-7.9-0.2-11.8-0.5c-37.7-3.2-70.3-21.5-94.2-52.9c-18.4-24.1-29.8-51.7-34-81.9
		c-3.9-28.4-1-58.3,8.4-86.4C140.3,71.1,192,22.1,257.2,3.7c6.6-1.9,13.4,2,15.2,8.5c1.8,6.6-2,13.4-8.5,15.2
		c-57.4,16.2-102.8,59.1-121.4,115c-8.2,24.6-10.8,50.6-7.3,75.2c3.6,26,13.4,49.7,29.2,70.4c19.9,26.1,45.7,40.7,76.7,43.3
		c40.4,3.4,76-14.5,89-26.6c5-4.7,12.8-4.4,17.4,0.6c4.7,5,4.4,12.8-0.6,17.4C328,340.3,290.2,356.5,250.7,356.5z"/>
  <path id="svg_2" opacity="0.1" d="M347.4,305.4c-4.7-5-12.5-5.2-17.4-0.6c-8.9,8.3-28.3,19.3-52.7,24.3c2.2,8.9,6,16.4,11.3,22.7
		c24.5-6,45.7-17.2,58.3-28.9C351.8,318.2,352,310.4,347.4,305.4z"/>
  <path id="svg_3" fill="#F7DA70" d="M457.5,335c-0.7-3.7-1-7.5-1-11.5c0-4,0.2-8,0.8-12.2c1.2-8.2,3.8-16.7,8-24.7
		c4.2-8,10.1-15.4,17.1-21.1c7-5.8,15.1-9.9,23.5-12c6.8-1.6,13.6,2.5,15.3,9.3c1.1,4.4-0.3,8.9-3.3,11.9l-0.9,0.9
		c-2.3,2.3-4.5,4.4-6.5,6.6c-2,2.1-3.9,4.3-5.6,6.5c-3.4,4.4-6.3,8.9-8.8,13.9c-2.5,5-4.6,10.4-6.7,16.4l-3.4,9.3
		c-1.2,3.2-2.4,6.6-4.1,10.1c-3.1,6.5-10.8,9.2-17.3,6.1c-3.8-1.8-6.4-5.3-7.1-9.2L457.5,335L457.5,335z"/>
  <path id="svg_4" opacity="0.15" d="M484.5,303.1c-3.9-7.7-9.8-14.6-17.1-20c-0.7,1.2-1.4,2.4-2,3.6c-4.2,8-6.9,16.4-8,24.7
		c-0.2,1-0.3,2.1-0.4,3.1c0.4,0.7,0.8,1.3,1.1,2c2.6,5.2,7.8,8.2,13.2,8.2c2.2,0,4.5-0.5,6.6-1.6
		C485.2,319.3,488.2,310.4,484.5,303.1L484.5,303.1z"/>
  <g id="svg_5">
   <path id="svg_6" fill="#846e50" d="M289.4,301.1c-12.6,0-25.1-3.3-35.9-9.8c-13.9-8.2-24.2-21-28.3-35
			c-2.3-7.9,2.2-16.1,10.1-18.4c7.9-2.3,16.1,2.2,18.4,10.1c4.1,14.1,22.6,26.6,43.6,22.7c8-1.5,15.8,3.8,17.3,11.8
			s-3.8,15.8-11.8,17.3C298.3,300.7,293.8,301.1,289.4,301.1L289.4,301.1z"/>
   <path id="svg_7" fill="#846e50" d="M472.7,317c-5.4,0-10.6-3-13.2-8.2c-6.6-13.1-27.1-22-47-14.4c-7.6,2.9-16.2-0.9-19.1-8.5
			c-2.9-7.6,0.9-16.2,8.5-19.1c16.2-6.2,33.9-6.4,49.9-0.5c15.2,5.6,27.6,16.2,34.1,29.3c3.7,7.3,0.7,16.2-6.6,19.9
			C477.2,316.5,474.9,317,472.7,317L472.7,317z"/>
  </g>
  <path id="svg_8" fill="#F8E9B4" d="M485.9,295.5c-2.3-4.5-5.2-8.7-8.7-12.5c-14.1,0.6-20.7,11-22.6,19.2c2,2,3.7,4.2,4.8,6.6
		c2.6,5.2,7.8,8.2,13.2,8.2c2.2,0,4.5-0.5,6.6-1.6C486.6,311.7,489.5,302.8,485.9,295.5L485.9,295.5z"/>
  <path id="svg_9" fill="#846e50" d="M305.9,415c-4.7,0-9.3-2.2-12.2-6.4c-12.1-17.6-14.5-36.9-6.7-54.4
		c7.3-16.3,23.2-29.1,38.7-31.2c8.1-1.1,15.5,4.7,16.6,12.8c1.1,8.1-4.7,15.5-12.8,16.6c-4,0.5-11.9,5.8-15.5,13.8
		c-3.5,8-2.2,16.6,4,25.6c4.6,6.7,2.9,16-3.8,20.6C311.7,414.2,308.8,415,305.9,415L305.9,415z"/>
  <path id="svg_10" fill="#F8E9B4" d="M318,391.8c-1.7-2.5-3.1-5-4-7.4c-11.2,0.2-21.4,6.6-26.7,12.8c1.7,3.9,3.8,7.7,6.4,11.4
		c2.9,4.2,7.5,6.4,12.2,6.4c2.9,0,5.8-0.8,8.4-2.6C321,407.7,322.7,398.5,318,391.8L318,391.8z"/>
  <path id="svg_11" opacity="0.1" d="M342.2,335.8c-1.1-8.1-8.5-13.8-16.6-12.8c-11.5,1.5-23.1,8.9-31.4,19.2
		c5.8,8.2,13.7,14.4,23,18.6c3.9-5,9.1-8.1,12.2-8.5C337.6,351.3,343.3,343.9,342.2,335.8z"/>
  <path id="svg_12" fill="#846e50" d="M437.1,393.7c-0.2,0-0.4,0-0.6,0c-8.2-0.3-14.5-7.2-14.2-15.4c0.4-10.9-3-18.9-10.3-23.8
		c-7.4-4.9-16.8-5.1-20.5-3.4c-7.4,3.4-16.2,0.2-19.7-7.2c-3.4-7.4-0.2-16.2,7.2-19.7c14.2-6.6,34.5-4.3,49.4,5.6
		c16,10.6,24.3,28.2,23.5,49.6C451.6,387.4,445,393.7,437.1,393.7L437.1,393.7z"/>
  <g id="svg_13">
   <path id="svg_14" fill="#F8E9B4" d="M450.9,364.8c-11.1-2.7-22.5-0.1-29.4,3.8c0.7,2.9,1,6.2,0.8,9.7c-0.3,8.2,6,15.1,14.2,15.4
			c0.2,0,0.4,0,0.6,0c7.9,0,14.5-6.3,14.8-14.2C452.1,374.3,451.7,369.4,450.9,364.8L450.9,364.8z"/>
   <path id="svg_15" fill="#F8E9B4" d="M253.6,248.2c-2.3-7.9-10.5-12.4-18.4-10.1c-7.9,2.3-12.4,10.5-10.1,18.4
			c1.8,6.1,4.7,11.9,8.7,17.3c8.3-2.4,18.1-8.7,25.3-15.7C256.5,255,254.7,251.6,253.6,248.2L253.6,248.2z"/>
  </g>
  <path id="svg_16" opacity="0.1" d="M314.5,282.7c-1.5-8-9.2-13.3-17.3-11.8c-3.7,0.7-7.3,0.9-10.8,0.6c-4.1,8.8-6.7,18.6-7.4,29
		c3.4,0.5,6.9,0.8,10.4,0.8c4.4,0,8.9-0.4,13.3-1.2C310.7,298.4,316,290.7,314.5,282.7L314.5,282.7z"/>
  <path id="svg_17" fill="#846e50" d="M423.5,296.8c0-41.1-30-74.4-67.1-74.4s-67.1,33.3-67.1,74.4s30,61.6,67.1,61.6
		C393.5,358.4,423.5,337.9,423.5,296.8L423.5,296.8z"/>
  <path id="svg_18" opacity="0.1" d="M356.4,222.4c-27.1,0-50.5,17.9-61.1,43.6c18.6,11.5,40,18.6,62,18.6
		c21.4,0,42.2-6.7,60.5-17.6C407.5,240.7,383.9,222.4,356.4,222.4L356.4,222.4z"/>
  <circle id="svg_19" fill="#846e50" cx="239.4" cy="181.2" r="31.4"/>
  <circle id="svg_20" fill="#F8ECC8" cx="239.4" cy="181.2" r="10.7"/>
  <path id="svg_21" opacity="0.1" d="M239.4,149.8c-5.6,0-10.9,1.5-15.5,4.1c-0.1,1.8-0.1,3.6-0.1,5.5c0,18,5.9,36.5,16.1,53.2
		c17.1-0.3,30.9-14.2,30.9-31.4C270.8,163.9,256.8,149.8,239.4,149.8L239.4,149.8z"/>
  <circle id="svg_22" fill="#846e50" cx="475.4" cy="181.2" r="31.4"/>
  <circle id="svg_23" fill="#F8ECC8" cx="475.4" cy="181.2" r="10.7"/>
  <path id="svg_24" fill="#846e50" d="M357.4,267.9c64.6,0,123.5-60.5,123.5-117.4c0-69.8-53.7-119.1-123.5-119.1
		S233.9,80.6,233.9,150.5C233.9,207.4,292.8,267.9,357.4,267.9z"/>
  <path id="svg_25" fill="#F8E9B4" d="M398.7,102.9c-13.2,0.1-25.4,4.8-35,12.5c-3.7,2.9-8.9,2.9-12.6,0c-9.6-7.7-21.7-12.4-35-12.5
		c-32.2-0.3-57.9,26.6-57.6,58.8c0.4,35.9,12.7,59.2,27.3,81.1c20.6,15.3,45.6,25.1,71.6,25.1c25.9,0,50.9-9.7,71.6-25.1
		c14.6-21.9,26.9-45.1,27.3-81.1C456.6,129.5,430.9,102.6,398.7,102.9L398.7,102.9z"/>
  <path id="svg_26" fill="#EDBCB9" d="M366.3,223c-4.9,0-8.9-4-8.9-8.9c0,4.9-4,8.9-8.9,8.9c-1.4,0-2.7-0.3-3.9-0.9v12.4
		c0,7.1,5.7,12.8,12.8,12.8c7.1,0,12.8-5.7,12.8-12.8v-12.4C369.1,222.6,367.7,223,366.3,223z"/>
  <path id="svg_28" fill="#4A5058" d="M309.5,209.9c-3.6,0-6.6-2.9-6.6-6.6c0-1.2-1-2.1-2.1-2.1c-1.2,0-2.1,1-2.1,2.1
		c0,3.6-2.9,6.6-6.6,6.6s-6.6-2.9-6.6-6.6c0-8.4,6.9-15.3,15.3-15.3s15.3,6.9,15.3,15.3C316.1,207,313.1,209.9,309.5,209.9
		L309.5,209.9z"/>
  <path id="svg_29" fill="#4A5058" d="M422.8,209.9c-3.6,0-6.6-2.9-6.6-6.6c0-1.2-1-2.1-2.1-2.1s-2.1,1-2.1,2.1c0,3.6-2.9,6.6-6.6,6.6
		c-3.6,0-6.6-2.9-6.6-6.6c0-8.4,6.9-15.3,15.3-15.3c8.4,0,15.3,6.9,15.3,15.3C429.4,207,426.4,209.9,422.8,209.9L422.8,209.9z"/>
  <path id="svg_31" fill="#D46D59" d="M357.4,236.8c-4.5,0-8.5,1.6-11.1,4.1c2.2,3.8,6.4,6.4,11.1,6.4c4.7,0,8.9-2.6,11.1-6.4
		C366,238.4,361.9,236.8,357.4,236.8z"/>
  <path id="svg_32" fill="#EDBCB9" d="M365.1,194.2l-2,2.4c-3.4,4.1-9.7,4.1-13.1,0l-2-2.4c-1-1.2-0.2-3.1,1.4-3.1h14.2
		C365.2,191.1,366.1,193,365.1,194.2z"/>
  <g id="svg_33"/>
  <g id="svg_34"/>
  <g id="svg_35"/>
  <g id="svg_36"/>
  <g id="svg_37"/>
  <g id="svg_38"/>
  <g id="svg_39"/>
  <g id="svg_40"/>
  <g id="svg_41"/>
  <g id="svg_42"/>
  <g id="svg_43"/>
  <g id="svg_44"/>
  <g id="svg_45"/>
  <g id="svg_46"/>
  <g id="svg_47"/>
  <path fill="#f7da70" id="svg_3" d="M207.6,297.2c0-6.3-2.5-12.1-7.1-16.8L58.4,138.4c-4.6-4.7-10.5-7.1-16.8-7.1
		c-6.4,0-12.2,2.5-16.8,7.1L9.5,153.6c-4.6,4.7-7.1,10.5-7.1,16.8c0,6.4,2.5,12.2,7.1,16.8l110,110l-110,110
		c-4.6,4.7-7.1,10.5-7.1,16.8c0,6.4,2.5,12.2,7.1,16.8l15.2,15.2c4.6,4.7,10.5,7.2,16.9,7.2c6.4,0,12.2-2.5,16.8-7.1l142.1-142.1
		C205.1,309.4,207.6,303.6,207.6,297.2L207.6,297.2z"/>
  <path fill="#f7da70" id="svg_4" d="M454.4,420H161.8c-6.5,0-12.3,2.3-16.8,6.8c-4.4,4.5-6.8,10.3-6.8,16.8v19.5
		c0,6.6,2.4,12.4,6.8,16.8c4.5,4.5,10.3,6.8,16.8,6.8h292.7c6.6,0,12.4-2.4,16.8-6.8c4.5-4.4,6.8-10.3,6.8-16.8v-19.5
		c0-6.5-2.3-12.3-6.8-16.8C466.8,422.3,461,420,454.4,420L454.4,420z"/>
  <g id="svg_5"/>
  <g id="svg_6"/>
  <g id="svg_7"/>
  <g id="svg_8"/>
  <g id="svg_9"/>
  <g id="svg_10"/>
  <g id="svg_11"/>
  <g id="svg_12"/>
  <g id="svg_13"/>
  <g id="svg_14"/>
  <g id="svg_15"/>
  <g id="svg_16"/>
  <g id="svg_17"/>
  <g id="svg_18"/>
  <g id="svg_19"/>
 </g>
</svg>