<?xml version="1.0" encoding="UTF-8" standalone="no"?>
<!DOCTYPE svg PUBLIC "-//W3C//DTD SVG 1.1//EN" "http://www.w3.org/Graphics/SVG/1.1/DTD/svg11.dtd">
<svg version="1.1" xmlns="http://www.w3.org/2000/svg" xmlns:xlink="http://www.w3.org/1999/xlink" preserveAspectRatio="xMidYMid meet" viewBox="0 0 264 230" width="264" height="230"><defs><path d="M36.53 52.53C44.09 59.46 104.6 114.91 112.17 121.84C120.04 129.06 120.04 140.76 112.17 147.98C104.7 154.82 45 209.53 37.54 216.37C29.66 223.59 16.89 223.59 9.01 216.37C1.14 209.15 1.14 197.45 9.01 190.23C13.04 186.54 33.16 168.1 69.38 134.91C32.55 101.17 12.1 82.42 8 78.67C0.13 71.45 0.13 59.75 8 52.53C11.94 48.92 17.11 47.12 22.27 47.12C27.43 47.12 32.59 48.92 36.53 52.53Z" id="iPbNEMzk3"></path><path d="M109.68 193.91C106.59 193.91 104.09 196.16 104.09 198.94C104.09 201.15 104.09 218.83 104.09 221.04C104.09 223.81 106.59 226.06 109.68 226.06C123.88 226.06 237.53 226.06 251.74 226.06C254.82 226.06 257.32 223.81 257.32 221.04C257.32 218.83 257.32 201.15 257.32 198.94C257.32 196.16 254.82 193.91 251.74 193.91C223.32 193.91 123.88 193.91 109.68 193.91Z" id="f9t7ev6GnG"></path><path d="M128.38 164.91C111.09 163.45 96.13 155.02 85.13 140.54C76.7 129.44 71.46 116.74 69.54 102.8C67.74 89.72 69.07 75.96 73.39 62.99C83.14 33.7 106.84 11.16 136.78 2.7C139.79 1.84 142.92 3.6 143.76 6.62C144.61 9.65 142.86 12.78 139.85 13.63C113.52 21.08 92.69 40.87 84.13 66.59C80.36 77.91 79.2 89.89 80.76 101.24C82.41 113.22 86.91 124.13 94.14 133.65C103.27 145.68 115.11 152.38 129.33 153.59C147.88 155.16 164.21 146.91 170.15 141.34C172.44 139.2 176.02 139.32 178.16 141.62C180.29 143.91 180.17 147.51 177.88 149.65C169.28 157.71 151.91 165.14 133.79 165.14C131.99 165.14 130.18 165.06 128.38 164.91Z" id="c1owh3AJQ0"></path><path d="M228.21 149.96C228.2 148.13 228.31 146.26 228.6 144.36C229.14 140.57 230.34 136.66 232.29 133C234.21 129.34 236.9 125.93 240.15 123.29C243.38 120.63 247.1 118.71 250.93 117.77C254.04 117.02 257.18 118.93 257.93 122.05C258.43 124.09 257.78 126.13 256.42 127.52C256.37 127.56 256.04 127.9 256 127.94C254.95 129 253.93 129.97 253 130.96C252.06 131.94 251.22 132.94 250.43 133.94C248.86 135.96 247.54 138.03 246.41 140.34C245.28 142.64 244.31 145.14 243.32 147.87C243.16 148.3 241.93 151.72 241.78 152.15C241.23 153.63 240.67 155.19 239.89 156.81C238.47 159.78 234.92 161.04 231.96 159.61C230.2 158.76 229.04 157.15 228.69 155.36C228.69 155.36 228.68 155.32 228.67 155.26C228.37 152.95 228.22 151.18 228.21 149.96Z" id="b6g4QIVAD"></path><path d="M135.07 135.17C128.69 131.39 123.96 125.52 122.09 119.07C121.04 115.46 123.11 111.67 126.71 110.62C130.32 109.57 134.09 111.64 135.14 115.26C137.02 121.75 145.51 127.49 155.16 125.69C158.85 125 162.4 127.45 163.08 131.15C163.77 134.85 161.33 138.41 157.64 139.1C155.62 139.48 153.58 139.67 151.55 139.67C145.75 139.67 140.05 138.13 135.07 135.17Z" id="l1nt3PsFkr"></path><path d="M229.57 143.19C226.55 137.15 217.15 133.05 208 136.57C204.49 137.92 200.56 136.16 199.22 132.64C197.88 129.13 199.63 125.18 203.13 123.83C210.57 120.97 218.71 120.89 226.05 123.6C233 126.16 238.71 131.07 241.71 137.07C243.4 140.44 242.05 144.53 238.69 146.23C237.71 146.72 236.67 146.95 235.65 146.95C233.16 146.95 230.76 145.58 229.57 143.19Z" id="a2WO8fUcFA"></path><path d="M237.71 131.32C231.23 131.59 228.21 136.38 227.35 140.15C228.27 141.08 229.03 142.1 229.57 143.19C230.76 145.58 233.16 146.95 235.65 146.95C236.67 146.95 237.71 146.72 238.69 146.23C242.05 144.53 243.4 140.44 241.71 137.07C240.68 135.01 239.32 133.08 237.71 131.32Z" id="a1OkBQaL4U"></path><path d="M153.5 189.15C147.94 181.05 146.85 172.15 150.43 164.08C153.76 156.56 161.06 150.66 168.18 149.73C171.9 149.24 175.31 151.87 175.8 155.61C176.28 159.34 173.66 162.77 169.94 163.25C168.09 163.49 164.49 165.9 162.84 169.63C161.21 173.29 161.84 177.26 164.69 181.41C166.82 184.51 166.04 188.76 162.95 190.9C161.77 191.71 160.43 192.1 159.1 192.1C156.94 192.1 154.82 191.07 153.5 189.15Z" id="f5B2YoBMq8"></path><path d="M162.84 178C157.72 178.11 152.99 181.04 150.56 183.9C151.34 185.67 152.32 187.43 153.5 189.15C154.82 191.07 156.94 192.1 159.1 192.1C160.43 192.1 161.77 191.71 162.95 190.9C166.04 188.76 166.82 184.51 164.69 181.41C163.9 180.26 163.28 179.12 162.84 178Z" id="a30QgTsrZ"></path><path d="M219.06 182.28C215.31 182.13 212.39 178.96 212.54 175.2C212.73 170.16 211.14 166.47 207.81 164.25C204.43 161.99 200.11 161.88 198.42 162.67C195.02 164.26 190.98 162.78 189.39 159.36C187.81 155.95 189.29 151.89 192.69 150.31C199.2 147.27 208.52 148.34 215.35 152.9C222.67 157.79 226.5 165.9 226.12 175.73C225.97 179.4 222.96 182.28 219.33 182.28C219.24 182.28 219.15 182.28 219.06 182.28Z" id="a8oWZLHwJ"></path><path d="M212.16 170.72C212.47 172.07 212.6 173.56 212.54 175.2C212.39 178.96 215.31 182.13 219.06 182.28C219.15 182.28 219.24 182.28 219.33 182.28C222.96 182.28 225.97 179.4 226.11 175.73C226.21 173.37 226.05 171.11 225.67 168.97C220.56 167.71 215.34 168.91 212.16 170.72Z" id="c1SpbrDa4m"></path><path d="M126.71 110.62C123.11 111.67 121.04 115.46 122.09 119.07C122.9 121.88 124.26 124.58 126.06 127.04C129.88 125.95 134.36 123.05 137.66 119.83C136.47 118.42 135.6 116.86 135.14 115.26C134.09 111.64 130.32 109.57 126.71 110.62Z" id="c3oKTIaqrX"></path><path d="M182.31 103.38C165.3 103.38 151.52 118.73 151.52 137.67C151.52 156.6 165.3 166.05 182.31 166.05C199.31 166.05 213.1 156.61 213.1 137.67C213.1 118.73 199.31 103.38 182.31 103.38Z" id="d295OPBxD6"></path><path d="M128.61 69.97C120.66 69.97 114.21 76.44 114.21 84.42C114.21 92.4 120.66 98.87 128.61 98.87C136.57 98.87 143.01 92.4 143.01 84.42C143.01 76.44 136.57 69.97 128.61 69.97Z" id="a1c94I9evG"></path><path d="M128.61 79.5C125.91 79.5 123.72 81.7 123.72 84.42C123.72 87.13 125.91 89.33 128.61 89.33C131.32 89.33 133.51 87.13 133.51 84.42C133.51 81.7 131.32 79.5 128.61 79.5Z" id="a1V1zRV5HX"></path><path d="M236.91 69.97C228.96 69.97 222.51 76.44 222.51 84.42C222.51 92.4 228.96 98.87 236.91 98.87C244.86 98.87 251.31 92.4 251.31 84.42C251.31 76.44 244.86 69.97 236.91 69.97Z" id="aDTjXjQE6"></path><path d="M236.91 79.5C234.21 79.5 232.01 81.7 232.01 84.42C232.01 87.13 234.21 89.33 236.91 89.33C239.61 89.33 241.8 87.13 241.8 84.42C241.8 81.7 239.61 79.5 236.91 79.5Z" id="a5B4JFkBnL"></path><path d="M239.44 70.27C239.44 38.11 214.81 15.42 182.76 15.42C150.71 15.42 126.08 38.11 126.08 70.27C126.08 96.48 153.1 124.34 182.76 124.34C212.43 124.34 239.44 96.48 239.44 70.27Z" id="d9M7A4RrI"></path><path d="M185.64 54.14C183.96 55.5 181.56 55.5 179.88 54.14C175.47 50.59 169.9 48.44 163.82 48.38C149.04 48.22 137.24 60.63 137.41 75.47C137.6 92.02 143.24 102.73 149.92 112.8C159.39 119.86 170.86 124.34 182.76 124.34C194.66 124.34 206.13 119.86 215.6 112.8C222.28 102.73 227.92 92.02 228.11 75.47C228.28 60.63 216.48 48.22 201.7 48.38C195.62 48.44 190.05 50.59 185.64 54.14Z" id="a2r9Q6lsF"></path><path d="M182.76 99.55C182.76 101.82 180.93 103.66 178.66 103.66C178.02 103.66 177.41 103.51 176.87 103.24C176.87 103.82 176.87 108.4 176.87 108.97C176.87 112.23 179.51 114.88 182.76 114.88C186.01 114.88 188.65 112.23 188.65 108.97C188.65 108.4 188.65 103.82 188.65 103.24C188.11 103.51 187.5 103.66 186.86 103.66C184.6 103.66 182.76 101.82 182.76 99.55Z" id="a4IC8CsAf"></path><path d="M157.74 94.63C157.74 94.09 157.3 93.65 156.76 93.65C156.23 93.65 155.79 94.09 155.79 94.63C155.79 96.3 154.44 97.66 152.77 97.66C151.1 97.66 149.75 96.3 149.75 94.63C149.75 90.74 152.9 87.59 156.76 87.59C160.63 87.59 163.78 90.74 163.78 94.63C163.78 96.3 162.43 97.66 160.76 97.66C159.09 97.66 157.74 96.3 157.74 94.63Z" id="h1ooSwm0dK"></path><path d="M209.73 94.63C209.73 94.09 209.29 93.65 208.76 93.65C208.22 93.65 207.78 94.09 207.78 94.63C207.78 96.3 206.43 97.66 204.76 97.66C203.09 97.66 201.74 96.3 201.74 94.63C201.74 90.74 204.89 87.59 208.76 87.59C212.63 87.59 215.77 90.74 215.77 94.63C215.77 96.3 214.42 97.66 212.75 97.66C211.08 97.66 209.73 96.3 209.73 94.63Z" id="cd8ZWpWmr"></path><path d="M177.67 111.92C178.68 113.68 180.58 114.88 182.76 114.88C184.94 114.88 186.84 113.68 187.86 111.92C186.68 110.77 184.84 110.02 182.76 110.02C180.68 110.02 178.84 110.77 177.67 111.92Z" id="g8ZiNxc21"></path><path d="M185.36 91.5C183.79 93.37 180.92 93.37 179.35 91.5C179.26 91.39 178.53 90.52 178.44 90.41C177.97 89.85 178.37 88.99 179.1 88.99C179.75 88.99 184.96 88.99 185.61 88.99C186.34 88.99 186.74 89.85 186.27 90.41C186.09 90.62 185.45 91.39 185.36 91.5Z" id="c1wc6NWYV4"></path></defs><g><g><g><g><use xlink:href="#iPbNEMzk3" opacity="1" fill="#f7da70" fill-opacity="1"></use><g><use xlink:href="#iPbNEMzk3" opacity="1" fill-opacity="0" stroke="#000000" stroke-width="1" stroke-opacity="0"></use></g></g><g><use xlink:href="#f9t7ev6GnG" opacity="1" fill="#f7da70" fill-opacity="1"></use><g><use xlink:href="#f9t7ev6GnG" opacity="1" fill-opacity="0" stroke="#000000" stroke-width="1" stroke-opacity="0"></use></g></g><g><g><use xlink:href="#c1owh3AJQ0" opacity="1" fill="#7d7060" fill-opacity="1"></use><g><use xlink:href="#c1owh3AJQ0" opacity="1" fill-opacity="0" stroke="#000000" stroke-width="1" stroke-opacity="0"></use></g></g><g><use xlink:href="#b6g4QIVAD" opacity="1" fill="#f7da70" fill-opacity="1"></use><g><use xlink:href="#b6g4QIVAD" opacity="1" fill-opacity="0" stroke="#000000" stroke-width="1" stroke-opacity="0"></use></g></g><g><use xlink:href="#l1nt3PsFkr" opacity="1" fill="#6e614f" fill-opacity="1"></use><g><use xlink:href="#l1nt3PsFkr" opacity="1" fill-opacity="0" stroke="#000000" stroke-width="1" stroke-opacity="0"></use></g></g><g><use xlink:href="#a2WO8fUcFA" opacity="1" fill="#6e614f" fill-opacity="1"></use><g><use xlink:href="#a2WO8fUcFA" opacity="1" fill-opacity="0" stroke="#000000" stroke-width="1" stroke-opacity="0"></use></g></g><g><use xlink:href="#a1OkBQaL4U" opacity="1" fill="#f8e9b4" fill-opacity="1"></use><g><use xlink:href="#a1OkBQaL4U" opacity="1" fill-opacity="0" stroke="#000000" stroke-width="1" stroke-opacity="0"></use></g></g><g><use xlink:href="#f5B2YoBMq8" opacity="1" fill="#6e614f" fill-opacity="1"></use><g><use xlink:href="#f5B2YoBMq8" opacity="1" fill-opacity="0" stroke="#000000" stroke-width="1" stroke-opacity="0"></use></g></g><g><use xlink:href="#a30QgTsrZ" opacity="1" fill="#f8e9b4" fill-opacity="1"></use><g><use xlink:href="#a30QgTsrZ" opacity="1" fill-opacity="0" stroke="#000000" stroke-width="1" stroke-opacity="0"></use></g></g><g><use xlink:href="#a8oWZLHwJ" opacity="1" fill="#6e614f" fill-opacity="1"></use><g><use xlink:href="#a8oWZLHwJ" opacity="1" fill-opacity="0" stroke="#000000" stroke-width="1" stroke-opacity="0"></use></g></g><g><use xlink:href="#c1SpbrDa4m" opacity="1" fill="#f8e9b4" fill-opacity="1"></use><g><use xlink:href="#c1SpbrDa4m" opacity="1" fill-opacity="0" stroke="#000000" stroke-width="1" stroke-opacity="0"></use></g></g><g><use xlink:href="#c3oKTIaqrX" opacity="1" fill="#f8e9b4" fill-opacity="1"></use><g><use xlink:href="#c3oKTIaqrX" opacity="1" fill-opacity="0" stroke="#000000" stroke-width="1" stroke-opacity="0"></use></g></g><g><use xlink:href="#d295OPBxD6" opacity="1" fill="#6e614f" fill-opacity="1"></use><g><use xlink:href="#d295OPBxD6" opacity="1" fill-opacity="0" stroke="#000000" stroke-width="1" stroke-opacity="0"></use></g></g><g><use xlink:href="#a1c94I9evG" opacity="1" fill="#7d7060" fill-opacity="1"></use><g><use xlink:href="#a1c94I9evG" opacity="1" fill-opacity="0" stroke="#000000" stroke-width="1" stroke-opacity="0"></use></g></g><g><use xlink:href="#a1V1zRV5HX" opacity="1" fill="#f8ecc8" fill-opacity="1"></use><g><use xlink:href="#a1V1zRV5HX" opacity="1" fill-opacity="0" stroke="#000000" stroke-width="1" stroke-opacity="0"></use></g></g><g><use xlink:href="#aDTjXjQE6" opacity="1" fill="#7d7060" fill-opacity="1"></use><g><use xlink:href="#aDTjXjQE6" opacity="1" fill-opacity="0" stroke="#000000" stroke-width="1" stroke-opacity="0"></use></g></g><g><use xlink:href="#a5B4JFkBnL" opacity="1" fill="#f8ecc8" fill-opacity="1"></use><g><use xlink:href="#a5B4JFkBnL" opacity="1" fill-opacity="0" stroke="#000000" stroke-width="1" stroke-opacity="0"></use></g></g><g><use xlink:href="#d9M7A4RrI" opacity="1" fill="#6e614f" fill-opacity="1"></use><g><use xlink:href="#d9M7A4RrI" opacity="1" fill-opacity="0" stroke="#000000" stroke-width="1" stroke-opacity="0"></use></g></g><g><use xlink:href="#a2r9Q6lsF" opacity="1" fill="#f8e9b4" fill-opacity="1"></use><g><use xlink:href="#a2r9Q6lsF" opacity="1" fill-opacity="0" stroke="#000000" stroke-width="1" stroke-opacity="0"></use></g></g><g><use xlink:href="#a4IC8CsAf" opacity="1" fill="#edbcb9" fill-opacity="1"></use><g><use xlink:href="#a4IC8CsAf" opacity="1" fill-opacity="0" stroke="#000000" stroke-width="1" stroke-opacity="0"></use></g></g><g><use xlink:href="#h1ooSwm0dK" opacity="1" fill="#4a5058" fill-opacity="1"></use><g><use xlink:href="#h1ooSwm0dK" opacity="1" fill-opacity="0" stroke="#000000" stroke-width="1" stroke-opacity="0"></use></g></g><g><use xlink:href="#cd8ZWpWmr" opacity="1" fill="#4a5058" fill-opacity="1"></use><g><use xlink:href="#cd8ZWpWmr" opacity="1" fill-opacity="0" stroke="#000000" stroke-width="1" stroke-opacity="0"></use></g></g><g><use xlink:href="#g8ZiNxc21" opacity="1" fill="#d46d59" fill-opacity="1"></use><g><use xlink:href="#g8ZiNxc21" opacity="1" fill-opacity="0" stroke="#000000" stroke-width="1" stroke-opacity="0"></use></g></g><g><use xlink:href="#c1wc6NWYV4" opacity="1" fill="#edbcb9" fill-opacity="1"></use><g><use xlink:href="#c1wc6NWYV4" opacity="1" fill-opacity="0" stroke="#000000" stroke-width="1" stroke-opacity="0"></use></g></g></g></g></g></g></svg>