<svg width="512" height="512" xmlns="http://www.w3.org/2000/svg">

 <g>
  <title>Layer 1</title>
  <path id="svg_1" fill="#846e50" d="m175.841,438.819c-4.865,0 -9.747,-0.197 -14.632,-0.608c-46.755,-3.941 -87.19,-26.652 -116.934,-65.676c-22.793,-29.905 -36.98,-64.12 -42.169,-101.696c-4.865,-35.233 -1.264,-72.325 10.413,-107.268c26.373,-78.926 90.454,-139.662 171.416,-162.465c8.141,-2.296 16.597,2.447 18.89,10.586c2.292,8.14 -2.448,16.597 -10.587,18.889c-71.192,20.053 -127.519,73.397 -150.675,142.695c-10.191,30.497 -13.344,62.786 -9.121,93.373c4.458,32.285 16.633,61.663 36.189,87.32c24.702,32.409 56.716,50.485 95.151,53.724c50.176,4.229 94.344,-17.993 110.403,-32.994c6.181,-5.772 15.87,-5.442 21.642,0.737c5.772,6.18 5.442,15.87 -0.737,21.642c-23.269,21.737 -70.228,41.741 -119.249,41.741z"/>
  <path id="svg_2" opacity="0.1" d="m295.827,375.439c-5.772,-6.18 -15.461,-6.51 -21.642,-0.738c-10.991,10.267 -35.155,23.913 -65.397,30.15c2.69,11.022 7.5,20.397 13.987,28.113c30.413,-7.505 56.7,-21.299 72.314,-35.884c6.181,-5.772 6.511,-15.461 0.738,-21.641z"/>
  <path id="svg_3" fill="#F7DA70" d="m432.432,412.211c-0.863,-4.595 -1.216,-9.36 -1.257,-14.291c-0.021,-4.922 0.281,-9.981 1.048,-15.091c1.471,-10.219 4.717,-20.733 9.976,-30.602c5.207,-9.868 12.488,-19.052 21.265,-26.175c8.745,-7.165 18.787,-12.333 29.161,-14.857c8.408,-2.046 16.883,3.112 18.927,11.521c1.334,5.486 -0.398,11 -4.098,14.739l-1.124,1.126c-2.851,2.863 -5.594,5.476 -8.124,8.132c-2.528,2.651 -4.806,5.35 -6.947,8.045c-4.245,5.426 -7.802,11.02 -10.861,17.232c-3.061,6.202 -5.69,12.935 -8.372,20.303l-4.16,11.521c-1.489,3.994 -3.004,8.196 -5.094,12.559c-3.837,8.009 -13.44,11.391 -21.449,7.554c-4.772,-2.287 -7.902,-6.621 -8.84,-11.446l-0.051,-0.27z"/>
  <path id="svg_4" opacity="0.15" d="m465.986,372.632c-4.794,-9.547 -12.157,-18.057 -21.246,-24.861c-0.889,1.468 -1.747,2.95 -2.541,4.455c-5.259,9.868 -8.507,20.383 -9.976,30.602c-0.192,1.277 -0.354,2.551 -0.489,3.82c0.512,0.812 0.991,1.635 1.414,2.476c3.226,6.423 9.705,10.132 16.434,10.132c2.771,0 5.586,-0.63 8.232,-1.959c9.068,-4.553 12.727,-15.597 8.172,-24.665z"/>
  <g id="svg_5">
   <path id="svg_6" fill="#846e50" d="m223.879,370.183c-15.69,0 -31.09,-4.13 -44.576,-12.107c-17.245,-10.202 -30.037,-26.012 -35.094,-43.38c-2.838,-9.743 2.759,-19.942 12.502,-22.779c9.744,-2.839 19.942,2.759 22.779,12.502c5.095,17.493 28.066,32.967 54.148,28.109c9.972,-1.853 19.569,4.728 21.425,14.704c1.856,9.976 -4.727,19.569 -14.704,21.425c-5.481,1.021 -10.998,1.526 -16.48,1.526z"/>
   <path id="svg_7" fill="#846e50" d="m451.291,389.816c-6.729,0 -13.208,-3.709 -16.434,-10.132c-8.177,-16.281 -33.573,-27.336 -58.341,-17.845c-9.477,3.63 -20.101,-1.107 -23.732,-10.583c-3.631,-9.476 1.107,-20.102 10.583,-23.732c20.115,-7.707 42.121,-7.937 61.963,-0.644c18.806,6.912 34.249,20.146 42.367,36.311c4.555,9.068 0.895,20.111 -8.173,24.666c-2.647,1.329 -5.462,1.959 -8.233,1.959z"/>
  </g>
  <path id="svg_8" fill="#F8E9B4" d="m467.697,363.191c-2.794,-5.563 -6.473,-10.767 -10.84,-15.498c-17.507,0.727 -25.672,13.64 -28.004,23.788c2.489,2.505 4.531,5.267 6.004,8.203c3.226,6.423 9.705,10.132 16.434,10.132c2.771,0 5.586,-0.63 8.232,-1.959c9.069,-4.554 12.728,-15.598 8.174,-24.666z"/>
  <path id="svg_9" fill="#846e50" d="m244.295,511.473c-5.84,0 -11.582,-2.778 -15.145,-7.95c-15.038,-21.822 -17.989,-45.812 -8.311,-67.552c9.02,-20.261 28.763,-36.164 48.013,-38.674c10.06,-1.316 19.284,5.781 20.596,15.845c1.313,10.062 -5.781,19.284 -15.845,20.595c-5.009,0.654 -14.726,7.147 -19.193,17.18c-4.397,9.877 -2.716,20.56 4.999,31.754c5.758,8.355 3.653,19.797 -4.704,25.555c-3.184,2.195 -6.815,3.247 -10.41,3.247z"/>
  <path id="svg_10" fill="#F8E9B4" d="m259.408,482.672c-2.141,-3.106 -3.799,-6.171 -5.01,-9.192c-13.837,0.307 -26.613,8.198 -33.184,15.89c2.098,4.788 4.741,9.52 7.934,14.153c3.564,5.172 9.305,7.95 15.145,7.95c3.595,0 7.227,-1.052 10.41,-3.246c8.358,-5.759 10.464,-17.2 4.705,-25.555z"/>
  <path id="svg_11" opacity="0.1" d="m289.447,413.141c-1.313,-10.062 -10.535,-17.16 -20.596,-15.845c-14.225,1.855 -28.714,11.027 -38.952,23.863c7.193,10.172 16.998,17.869 28.568,23.092c4.867,-6.182 11.346,-10.022 15.134,-10.515c10.065,-1.311 17.159,-10.533 15.846,-20.595z"/>
  <path id="svg_12" fill="#846e50" d="m407.165,485.013c-0.241,0 -0.483,-0.004 -0.725,-0.014c-10.141,-0.394 -18.041,-8.934 -17.647,-19.073c0.527,-13.584 -3.768,-23.509 -12.767,-29.501c-9.142,-6.086 -20.826,-6.374 -25.407,-4.245c-9.202,4.277 -20.129,0.281 -24.405,-8.922c-4.276,-9.203 -0.281,-20.13 8.922,-24.406c17.607,-8.178 42.794,-5.307 61.255,6.983c19.81,13.188 30.152,35.034 29.125,61.516c-0.388,9.898 -8.533,17.662 -18.351,17.662z"/>
  <g id="svg_13">
   <path id="svg_14" fill="#F8E9B4" d="m424.307,449.138c-13.818,-3.388 -27.923,-0.167 -36.534,4.717c0.844,3.633 1.191,7.655 1.02,12.071c-0.393,10.14 7.507,18.679 17.647,19.073c0.243,0.01 0.485,0.014 0.725,0.014c9.818,0 17.963,-7.764 18.348,-17.662c0.247,-6.357 -0.168,-12.444 -1.206,-18.213z"/>
   <path id="svg_15" fill="#F8E9B4" d="m179.492,304.42c-2.838,-9.743 -13.035,-15.341 -22.779,-12.502c-9.743,2.838 -15.34,13.036 -12.502,22.779c2.203,7.562 5.874,14.828 10.738,21.466c10.319,-2.936 22.457,-10.752 31.371,-19.43c-3.218,-3.798 -5.57,-7.993 -6.828,-12.313z"/>
  </g>
  <path id="svg_16" opacity="0.1" d="m255.064,347.233c-1.856,-9.976 -11.453,-16.557 -21.425,-14.704c-4.608,0.858 -9.115,1.07 -13.447,0.76c-5.138,10.885 -8.372,23.043 -9.226,35.941c4.26,0.625 8.574,0.953 12.912,0.953c5.482,0 10.998,-0.504 16.481,-1.524c9.978,-1.857 16.561,-11.448 14.705,-21.426z"/>
  <path id="svg_17" fill="#846e50" d="m390.317,364.802c0,-51.024 -37.279,-92.387 -83.265,-92.387c-45.986,0 -83.265,41.364 -83.265,92.387s37.278,76.467 83.265,76.467c45.987,0.001 83.265,-25.442 83.265,-76.467z"/>
  <path id="svg_18" opacity="0.1" d="m307.052,272.416c-33.664,0 -62.641,22.179 -75.764,54.075c23.084,14.321 49.619,23.065 76.991,23.065c26.599,0 52.405,-8.258 75.025,-21.865c-12.884,-32.54 -42.167,-55.275 -76.252,-55.275z"/>
  <circle id="svg_19" fill="#846e50" r="38.939" cy="221.312" cx="161.855"/>
  <circle id="svg_20" fill="#F8ECC8" r="13.238" cy="221.312" cx="161.855"/>
  <path id="svg_21" opacity="0.1" d="m161.851,182.369c-6.989,0 -13.543,1.851 -19.213,5.075c-0.092,2.249 -0.148,4.513 -0.148,6.799c0,22.396 7.354,45.235 19.945,65.988c21.235,-0.314 38.355,-17.614 38.355,-38.923c0,-21.507 -17.434,-38.939 -38.939,-38.939z"/>
  <circle id="svg_22" fill="#846e50" r="38.939" cy="221.312" cx="454.704"/>
  <circle id="svg_23" fill="#F8ECC8" r="13.238" cy="221.312" cx="454.704"/>
  <path id="svg_24" fill="#846e50" d="m308.279,328.889c80.222,0 153.268,-75.066 153.268,-145.688c0,-86.662 -66.607,-147.798 -153.268,-147.798s-153.268,61.137 -153.268,147.798c0,70.622 73.046,145.688 153.268,145.688z"/>
  <path id="svg_25" fill="#F8E9B4" d="m359.485,124.2c-16.423,0.178 -31.498,5.961 -43.412,15.524c-4.55,3.654 -11.042,3.654 -15.592,0c-11.913,-9.563 -26.987,-15.348 -43.411,-15.524c-39.979,-0.431 -71.891,33.01 -71.431,72.989c0.514,44.597 15.766,73.459 33.836,100.602c25.615,19.018 56.629,31.099 88.8,31.099c32.173,0 63.185,-12.081 88.8,-31.099c18.07,-27.143 33.322,-56.005 33.836,-100.602c0.466,-39.979 -31.447,-73.421 -71.426,-72.989z"/>
  <path id="svg_26" fill="#EDBCB9" d="m319.358,273.167c-6.119,0 -11.08,-4.961 -11.08,-11.08c0,6.119 -4.961,11.08 -11.08,11.08c-1.739,0 -3.378,-0.412 -4.842,-1.125l0,15.422c0,8.793 7.129,15.922 15.922,15.922s15.922,-7.129 15.922,-15.922l0,-15.422c-1.464,0.713 -3.102,1.125 -4.842,1.125z"/>
  <path id="svg_28" fill="#4A5058" d="m248.781,256.99c-4.512,0 -8.17,-3.658 -8.17,-8.17c0,-1.451 -1.181,-2.632 -2.632,-2.632c-1.451,0 -2.632,1.181 -2.632,2.632c0,4.512 -3.658,8.17 -8.17,8.17s-8.17,-3.658 -8.17,-8.17c0,-10.461 8.511,-18.972 18.972,-18.972s18.972,8.511 18.972,18.972c0,4.512 -3.658,8.17 -8.17,8.17z"/>
  <path id="svg_29" fill="#4A5058" d="m389.38,256.99c-4.512,0 -8.17,-3.658 -8.17,-8.17c0,-1.451 -1.181,-2.632 -2.632,-2.632s-2.632,1.181 -2.632,2.632c0,4.512 -3.658,8.17 -8.17,8.17c-4.512,0 -8.17,-3.658 -8.17,-8.17c0,-10.461 8.511,-18.972 18.972,-18.972c10.461,0 18.972,8.511 18.972,18.972c0,4.512 -3.658,8.17 -8.17,8.17z"/>
  <path id="svg_31" fill="#D46D59" d="m308.279,290.302c-5.617,0 -10.597,2.009 -13.779,5.113c2.753,4.758 7.886,7.969 13.779,7.969c5.893,0 11.026,-3.21 13.779,-7.969c-3.182,-3.104 -8.163,-5.113 -13.779,-5.113z"/>
  <path id="svg_32" fill="#EDBCB9" d="m317.773,237.451l-2.464,2.935c-4.239,5.047 -12.005,5.047 -16.243,0l-2.464,-2.935c-1.269,-1.512 -0.195,-3.818 1.78,-3.818l17.611,0c1.975,0 3.049,2.306 1.78,3.818z"/>
  <g id="svg_33"/>
  <g id="svg_34"/>
  <g id="svg_35"/>
  <g id="svg_36"/>
  <g id="svg_37"/>
  <g id="svg_38"/>
  <g id="svg_39"/>
  <g id="svg_40"/>
  <g id="svg_41"/>
  <g id="svg_42"/>
  <g id="svg_43"/>
  <g id="svg_44"/>
  <g id="svg_45"/>
  <g id="svg_46"/>
  <g id="svg_47"/>
 </g>
</svg>