<svg width="927" height="733" xmlns="http://www.w3.org/2000/svg">
 <title>lost_online</title>

 <g>
  <title>Layer 1</title>
  <path transform="rotate(179.952 484.923 381.077)" id="svg_2" fill="#3f3d56" d="m41.92309,14.07693l886,0a0,0 0 0 1 0,0l0,0.00073a733.99927,733.99927 0 0 1 -733.99927,733.99927l-152.00073,0a0,0 0 0 1 0,0l0,-734a0,0 0 0 1 0,0z"/>
  <circle id="svg_3" fill="#f2f2f2" r="71.88313" cy="267.84801" cx="763.4359"/>
  <circle id="svg_4" fill="#ff6584" r="6.16141" cy="-135.66438" cx="448.42122"/>
  <circle id="svg_5" fill="#ff6584" r="6.16141" cy="534.8425" cx="742.89787"/>
  <circle id="svg_6" fill="#f2f2f2" r="6.16141" cy="-135.66438" cx="669.20513"/>
  <circle id="svg_7" fill="#f2f2f2" r="6.16141" cy="418.80259" cx="849.69566"/>
  <circle id="svg_8" fill="#f2f2f2" r="6.16141" cy="288.38604" cx="604.26611"/>
  <circle id="svg_9" fill="#f2f2f2" r="6.16141" cy="179.04074" cx="346.04591"/>
  <circle id="svg_10" fill="#6c63ff" r="209.48799" cy="503.00854" cx="394.77812"/>
  <circle id="svg_11" opacity="0.2" r="30.80706" cy="417.77568" cx="385.536"/>
  <circle id="svg_12" opacity="0.2" r="53.3989" cy="624.18297" cx="385.536"/>
  <circle id="svg_13" opacity="0.2" r="13.34972" cy="543.05772" cx="230.47381"/>
  <circle id="svg_15" opacity="0.2" r="7.09663" cy="371.45507" cx="456.30054"/>
  <circle id="svg_16" opacity="0.2" r="9.24212" cy="512.25066" cx="376.29388"/>
  <circle id="svg_17" opacity="0.2" r="7.09663" cy="287.46917" cx="739.90885"/>
  <circle id="svg_18" opacity="0.2" r="7.09663" cy="462.04249" cx="548.90509"/>
  <circle id="svg_19" opacity="0.2" r="10.25068" cy="280.77597" cx="803.50342"/>
  <circle id="svg_20" opacity="0.2" r="10.25068" cy="534.42074" cx="490.29833"/>
  <circle id="svg_21" opacity="0.2" r="13.34972" cy="417.77568" cx="265.38848"/>
  <path id="svg_22" fill="#fff" d="m440.16638,623.76078a586.0229,586.0229 0 0 1 -65.92931,-3.80977c-65.831,-7.47613 -126.5456,-25.142 -170.95911,-49.74257c-44.957,-24.90237 -67.96155,-54.06077 -64.777,-82.104c2.20623,-19.42891 20.9853,-36.81905 57.40973,-53.16223a2.05428,2.05428 0 0 1 1.68175,3.74859c-34.98737,15.69736 -52.98122,32.01246 -55.00995,49.87695c-2.98544,26.28527 19.277,54.0026 62.68614,78.04755c43.95221,24.3458 104.12425,41.83723 169.4318,49.25419c65.308,7.417 127.86934,3.86291 176.16181,-10.00628c47.69579,-13.69871 75.60666,-35.71794 78.59109,-62.00321c2.01971,-17.78226 -7.775,-36.63654 -28.325,-54.52609a2.05423,2.05423 0 0 1 2.69762,-3.09876c21.61508,18.81718 31.88812,38.90394 29.709,58.08815c-3.185,28.04325 -32.14183,51.301 -81.53842,65.48706c-32.16152,9.2371 -70.54899,13.95042 -111.83015,13.95042z"/>
  <circle id="svg_43" fill="#6c63ff" r="7.27772" cy="368.76656" cx="856.24537"/>
  <circle id="svg_45" fill="#f2f2f2" r="6.16141" cy="632.26413" cx="666.04181"/>
  <circle id="svg_46" fill="#6c63ff" r="7.27772" cy="436.07425" cx="647.59152"/>
  <circle id="svg_47" fill="#f2f2f2" r="6.16141" cy="625.53337" cx="779.50336"/>
  <circle id="svg_70" opacity="0.2" r="7.09663" cy="245.46917" cx="758.90885"/>
  <g  id="svg_215">
   <g  transform="matrix(0.279948 0 0 0.30107 249.813 98.3362)" id="svg_214">
    <title >Layer 1</title>
    <path  d="m1710.12585,425.8312c-4.865,0 -9.747,-0.197 -14.632,-0.608c-46.755,-3.941 -87.19,-26.652 -116.934,-65.676c-22.793,-29.905 -36.98,-64.12 -42.169,-101.696c-4.865,-35.233 -1.264,-72.325 10.413,-107.268c26.373,-78.926 90.454,-139.662 171.416,-162.465c8.141,-2.296 16.597,2.447 18.89,10.586c2.292,8.14 -2.448,16.597 -10.587,18.889c-71.192,20.053 -127.519,73.397 -150.675,142.695c-10.191,30.497 -13.344,62.786 -9.121,93.373c4.458,32.285 16.633,61.663 36.189,87.32c24.702,32.409 56.716,50.485 95.151,53.724c50.176,4.229 94.344,-17.993 110.403,-32.994c6.181,-5.772 15.87,-5.442 21.642,0.737c5.772,6.18 5.442,15.87 -0.737,21.642c-23.269,21.737 -70.228,41.741 -119.249,41.741z" fill="#846e50" id="svg_212"/>
    <path  d="m1830.11185,362.4512c-5.772,-6.18 -15.461,-6.51 -21.642,-0.738c-10.991,10.267 -35.155,23.913 -65.397,30.15c2.69,11.022 7.5,20.397 13.987,28.113c30.413,-7.505 56.7,-21.299 72.314,-35.884c6.181,-5.772 6.511,-15.461 0.738,-21.641z" opacity="0.1" id="svg_211"/>
    <path  d="m1966.71685,399.2232c-0.863,-4.595 -1.216,-9.36 -1.257,-14.291c-0.021,-4.922 0.281,-9.981 1.048,-15.091c1.471,-10.219 4.717,-20.733 9.976,-30.602c5.207,-9.868 12.488,-19.052 21.265,-26.175c8.745,-7.165 18.787,-12.333 29.161,-14.857c8.408,-2.046 16.883,3.112 18.927,11.521c1.334,5.486 -0.398,11 -4.098,14.739l-1.124,1.126c-2.851,2.863 -5.594,5.476 -8.124,8.132c-2.528,2.651 -4.806,5.35 -6.947,8.045c-4.245,5.426 -7.802,11.02 -10.861,17.232c-3.061,6.202 -5.69,12.935 -8.372,20.303l-4.16,11.521c-1.489,3.994 -3.004,8.196 -5.094,12.559c-3.837,8.009 -13.44,11.391 -21.449,7.554c-4.772,-2.287 -7.902,-6.621 -8.84,-11.446l-0.051,-0.27z" fill="#F7DA70" id="svg_210"/>
    <path  d="m2000.27085,359.6442c-4.794,-9.547 -12.157,-18.057 -21.246,-24.861c-0.889,1.468 -1.747,2.95 -2.541,4.455c-5.259,9.868 -8.507,20.383 -9.976,30.602c-0.192,1.277 -0.354,2.551 -0.489,3.82c0.512,0.812 0.991,1.635 1.414,2.476c3.226,6.423 9.705,10.132 16.434,10.132c2.771,0 5.586,-0.63 8.232,-1.959c9.068,-4.553 12.727,-15.597 8.172,-24.665z" opacity="0.15" id="svg_209"/>
    <g  id="svg_206">
     <path  d="m1758.16385,357.1952c-15.69,0 -31.09,-4.13 -44.576,-12.107c-17.245,-10.202 -30.037,-26.012 -35.094,-43.38c-2.838,-9.743 2.759,-19.942 12.502,-22.779c9.744,-2.839 19.942,2.759 22.779,12.502c5.095,17.493 28.066,32.967 54.148,28.109c9.972,-1.853 19.569,4.728 21.425,14.704c1.856,9.976 -4.727,19.569 -14.704,21.425c-5.481,1.021 -10.998,1.526 -16.48,1.526z" fill="#846e50" id="svg_208"/>
     <path  d="m1985.57585,376.8282c-6.729,0 -13.208,-3.709 -16.434,-10.132c-8.177,-16.281 -33.573,-27.336 -58.341,-17.845c-9.477,3.63 -20.101,-1.107 -23.732,-10.583c-3.631,-9.476 1.107,-20.102 10.583,-23.732c20.115,-7.707 42.121,-7.937 61.963,-0.644c18.806,6.912 34.249,20.146 42.367,36.311c4.555,9.068 0.895,20.111 -8.173,24.666c-2.647,1.329 -5.462,1.959 -8.233,1.959z" fill="#846e50" id="svg_207"/>
    </g>
    <path  d="m2001.98185,350.2032c-2.794,-5.563 -6.473,-10.767 -10.84,-15.498c-17.507,0.727 -25.672,13.64 -28.004,23.788c2.489,2.505 4.531,5.267 6.004,8.203c3.226,6.423 9.705,10.132 16.434,10.132c2.771,0 5.586,-0.63 8.232,-1.959c9.069,-4.554 12.728,-15.598 8.174,-24.666z" fill="#F8E9B4" id="svg_205"/>
    <path  d="m1778.57985,498.4852c-5.84,0 -11.582,-2.778 -15.145,-7.95c-15.038,-21.822 -17.989,-45.812 -8.311,-67.552c9.02,-20.261 28.763,-36.164 48.013,-38.674c10.06,-1.316 19.284,5.781 20.596,15.845c1.313,10.062 -5.781,19.284 -15.845,20.595c-5.009,0.654 -14.726,7.147 -19.193,17.18c-4.397,9.877 -2.716,20.56 4.999,31.754c5.758,8.355 3.653,19.797 -4.704,25.555c-3.184,2.195 -6.815,3.247 -10.41,3.247z" fill="#846e50" id="svg_204"/>
    <path  d="m1793.69285,469.6842c-2.141,-3.106 -3.799,-6.171 -5.01,-9.192c-13.837,0.307 -26.613,8.198 -33.184,15.89c2.098,4.788 4.741,9.52 7.934,14.153c3.564,5.172 9.305,7.95 15.145,7.95c3.595,0 7.227,-1.052 10.41,-3.246c8.358,-5.759 10.464,-17.2 4.705,-25.555z" fill="#F8E9B4" id="svg_203"/>
    <path  d="m1823.73185,400.1532c-1.313,-10.062 -10.535,-17.16 -20.596,-15.845c-14.225,1.855 -28.714,11.027 -38.952,23.863c7.193,10.172 16.998,17.869 28.568,23.092c4.867,-6.182 11.346,-10.022 15.134,-10.515c10.065,-1.311 17.159,-10.533 15.846,-20.595z" opacity="0.1" id="svg_202"/>
    <path  d="m1941.44985,472.0252c-0.241,0 -0.483,-0.004 -0.725,-0.014c-10.141,-0.394 -18.041,-8.934 -17.647,-19.073c0.527,-13.584 -3.768,-23.509 -12.767,-29.501c-9.142,-6.086 -20.826,-6.374 -25.407,-4.245c-9.202,4.277 -20.129,0.281 -24.405,-8.922c-4.276,-9.203 -0.281,-20.13 8.922,-24.406c17.607,-8.178 42.794,-5.307 61.255,6.983c19.81,13.188 30.152,35.034 29.125,61.516c-0.388,9.898 -8.533,17.662 -18.351,17.662z" fill="#846e50" id="svg_201"/>
    <g  id="svg_198">
     <path  d="m1958.59185,436.1502c-13.818,-3.388 -27.923,-0.167 -36.534,4.717c0.844,3.633 1.191,7.655 1.02,12.071c-0.393,10.14 7.507,18.679 17.647,19.073c0.243,0.01 0.485,0.014 0.725,0.014c9.818,0 17.963,-7.764 18.348,-17.662c0.247,-6.357 -0.168,-12.444 -1.206,-18.213z" fill="#F8E9B4" id="svg_200"/>
     <path  d="m1713.77685,291.4322c-2.838,-9.743 -13.035,-15.341 -22.779,-12.502c-9.743,2.838 -15.34,13.036 -12.502,22.779c2.203,7.562 5.874,14.828 10.738,21.466c10.319,-2.936 22.457,-10.752 31.371,-19.43c-3.218,-3.798 -5.57,-7.993 -6.828,-12.313z" fill="#F8E9B4" id="svg_199"/>
    </g>
    <path  d="m1789.34885,334.2452c-1.856,-9.976 -11.453,-16.557 -21.425,-14.704c-4.608,0.858 -9.115,1.07 -13.447,0.76c-5.138,10.885 -8.372,23.043 -9.226,35.941c4.26,0.625 8.574,0.953 12.912,0.953c5.482,0 10.998,-0.504 16.481,-1.524c9.978,-1.857 16.561,-11.448 14.705,-21.426z" opacity="0.1" id="svg_197"/>
    <path  d="m1924.60185,351.8142c0,-51.024 -37.279,-92.387 -83.265,-92.387c-45.986,0 -83.265,41.364 -83.265,92.387s37.278,76.467 83.265,76.467c45.987,0.001 83.265,-25.442 83.265,-76.467z" fill="#846e50" id="svg_196"/>
    <path  d="m1841.33685,259.4282c-33.664,0 -62.641,22.179 -75.764,54.075c23.084,14.321 49.619,23.065 76.991,23.065c26.599,0 52.405,-8.258 75.025,-21.865c-12.884,-32.54 -42.167,-55.275 -76.252,-55.275z" opacity="0.1" id="svg_195"/>
    <circle  cx="1696.13985" cy="208.3242" r="38.939" fill="#846e50" id="svg_194"/>
    <circle  cx="1696.13985" cy="208.3242" r="13.238" fill="#F8ECC8" id="svg_193"/>
    <path  d="m1696.13585,169.3812c-6.989,0 -13.543,1.851 -19.213,5.075c-0.092,2.249 -0.148,4.513 -0.148,6.799c0,22.396 7.354,45.235 19.945,65.988c21.235,-0.314 38.355,-17.614 38.355,-38.923c0,-21.507 -17.434,-38.939 -38.939,-38.939z" opacity="0.1" id="svg_192"/>
    <circle  cx="1988.98885" cy="208.3242" r="38.939" fill="#846e50" id="svg_191"/>
    <circle  cx="1988.98885" cy="208.3242" r="13.238" fill="#F8ECC8" id="svg_190"/>
    <path  d="m1842.56385,315.9012c80.222,0 153.268,-75.066 153.268,-145.688c0,-86.662 -66.607,-147.798 -153.268,-147.798s-153.268,61.137 -153.268,147.798c0,70.622 73.046,145.688 153.268,145.688z" fill="#846e50" id="svg_189"/>
    <path  d="m1893.76985,111.2122c-16.423,0.178 -31.498,5.961 -43.412,15.524c-4.55,3.654 -11.042,3.654 -15.592,0c-11.913,-9.563 -26.987,-15.348 -43.411,-15.524c-39.979,-0.431 -71.891,33.01 -71.431,72.989c0.514,44.597 15.766,73.459 33.836,100.602c25.615,19.018 56.629,31.099 88.8,31.099c32.173,0 63.185,-12.081 88.8,-31.099c18.07,-27.143 33.322,-56.005 33.836,-100.602c0.466,-39.979 -31.447,-73.421 -71.426,-72.989z" fill="#F8E9B4" id="svg_188"/>
    <path  d="m1853.64285,260.1792c-6.119,0 -11.08,-4.961 -11.08,-11.08c0,6.119 -4.961,11.08 -11.08,11.08c-1.739,0 -3.378,-0.412 -4.842,-1.125l0,15.422c0,8.793 7.129,15.922 15.922,15.922s15.922,-7.129 15.922,-15.922l0,-15.422c-1.464,0.713 -3.102,1.125 -4.842,1.125z" fill="#EDBCB9" id="svg_187"/>
    <path  d="m1783.06585,244.0022c-4.512,0 -8.17,-3.658 -8.17,-8.17c0,-1.451 -1.181,-2.632 -2.632,-2.632c-1.451,0 -2.632,1.181 -2.632,2.632c0,4.512 -3.658,8.17 -8.17,8.17s-8.17,-3.658 -8.17,-8.17c0,-10.461 8.511,-18.972 18.972,-18.972s18.972,8.511 18.972,18.972c0,4.512 -3.658,8.17 -8.17,8.17z" fill="#4A5058" id="svg_186"/>
    <path  d="m1923.66485,244.0022c-4.512,0 -8.17,-3.658 -8.17,-8.17c0,-1.451 -1.181,-2.632 -2.632,-2.632s-2.632,1.181 -2.632,2.632c0,4.512 -3.658,8.17 -8.17,8.17c-4.512,0 -8.17,-3.658 -8.17,-8.17c0,-10.461 8.511,-18.972 18.972,-18.972c10.461,0 18.972,8.511 18.972,18.972c0,4.512 -3.658,8.17 -8.17,8.17z" fill="#4A5058" id="svg_185"/>
    <path  d="m1842.56385,277.3142c-5.617,0 -10.597,2.009 -13.779,5.113c2.753,4.758 7.886,7.969 13.779,7.969c5.893,0 11.026,-3.21 13.779,-7.969c-3.182,-3.104 -8.163,-5.113 -13.779,-5.113z" fill="#D46D59" id="svg_184"/>
    <path  d="m1852.05785,224.4632l-2.464,2.935c-4.239,5.047 -12.005,5.047 -16.243,0l-2.464,-2.935c-1.269,-1.512 -0.195,-3.818 1.78,-3.818l17.611,0c1.975,0 3.049,2.306 1.78,3.818z" fill="#EDBCB9" id="svg_183"/>
    <g  id="svg_182"/>
    <g  id="svg_181"/>
    <g  id="svg_180"/>
    <g  id="svg_179"/>
    <g  id="svg_178"/>
    <g  id="svg_177"/>
    <g  id="svg_176"/>
    <g  id="svg_175"/>
    <g  id="svg_174"/>
    <g  id="svg_173"/>
    <g  id="svg_172"/>
    <g  id="svg_171"/>
    <g  id="svg_170"/>
    <g  id="svg_169"/>
    <g  id="svg_168"/>
   </g>
  </g>
 </g>
</svg>