<svg width="927" height="733" xmlns="http://www.w3.org/2000/svg" xmlns:xlink="http://www.w3.org/1999/xlink">
 <title>lost_online</title>

 <g>
  <title>Layer 1</title>
  <path transform="rotate(179.9519805908203 484.92309570312506,381.0769348144531) " id="svg_2" fill="#3f3d56" d="m41.92309,14.07693l886,0a0,0 0 0 1 0,0l0,0.00073a733.99927,733.99927 0 0 1 -733.99927,733.99927l-152.00073,0a0,0 0 0 1 0,0l0,-734a0,0 0 0 1 0,0z"/>
  <circle id="svg_3" fill="#f2f2f2" r="71.88313" cy="267.84801" cx="763.4359"/>
  <circle id="svg_4" fill="#ff6584" r="6.16141" cy="-135.66438" cx="448.42122"/>
  <circle id="svg_5" fill="#ff6584" r="6.16141" cy="534.8425" cx="742.89787"/>
  <circle id="svg_6" fill="#f2f2f2" r="6.16141" cy="-135.66438" cx="669.20513"/>
  <circle id="svg_7" fill="#f2f2f2" r="6.16141" cy="418.80259" cx="849.69566"/>
  <circle id="svg_8" fill="#f2f2f2" r="6.16141" cy="288.38604" cx="604.26611"/>
  <circle id="svg_9" fill="#f2f2f2" r="6.16141" cy="179.04074" cx="346.04591"/>
  <circle id="svg_10" fill="#6c63ff" r="209.48799" cy="503.00854" cx="394.77812"/>
  <circle id="svg_11" opacity="0.2" r="30.80706" cy="417.77568" cx="385.536"/>
  <circle id="svg_12" opacity="0.2" r="53.3989" cy="624.18297" cx="385.536"/>
  <circle id="svg_13" opacity="0.2" r="13.34972" cy="543.05772" cx="230.47381"/>
  <circle id="svg_15" opacity="0.2" r="7.09663" cy="371.45507" cx="456.30054"/>
  <circle id="svg_16" opacity="0.2" r="9.24212" cy="512.25066" cx="376.29388"/>
  <circle id="svg_17" opacity="0.2" r="7.09663" cy="287.46917" cx="739.90885"/>
  <circle id="svg_18" opacity="0.2" r="7.09663" cy="462.04249" cx="548.90509"/>
  <circle id="svg_19" opacity="0.2" r="10.25068" cy="280.77597" cx="803.50342"/>
  <circle id="svg_20" opacity="0.2" r="10.25068" cy="534.42074" cx="490.29833"/>
  <circle id="svg_21" opacity="0.2" r="13.34972" cy="417.77568" cx="265.38848"/>
  <path id="svg_22" fill="#fff" d="m440.16638,623.76078a586.0229,586.0229 0 0 1 -65.92931,-3.80977c-65.831,-7.47613 -126.5456,-25.142 -170.95911,-49.74257c-44.957,-24.90237 -67.96155,-54.06077 -64.777,-82.104c2.20623,-19.42891 20.9853,-36.81905 57.40973,-53.16223a2.05428,2.05428 0 0 1 1.68175,3.74859c-34.98737,15.69736 -52.98122,32.01246 -55.00995,49.87695c-2.98544,26.28527 19.277,54.0026 62.68614,78.04755c43.95221,24.3458 104.12425,41.83723 169.4318,49.25419c65.308,7.417 127.86934,3.86291 176.16181,-10.00628c47.69579,-13.69871 75.60666,-35.71794 78.59109,-62.00321c2.01971,-17.78226 -7.775,-36.63654 -28.325,-54.52609a2.05423,2.05423 0 0 1 2.69762,-3.09876c21.61508,18.81718 31.88812,38.90394 29.709,58.08815c-3.185,28.04325 -32.14183,51.301 -81.53842,65.48706c-32.16152,9.2371 -70.54899,13.95042 -111.83015,13.95042z"/>
  <circle id="svg_43" fill="#6c63ff" r="7.27772" cy="368.76656" cx="856.24537"/>
  <circle id="svg_45" fill="#f2f2f2" r="6.16141" cy="632.26413" cx="666.04181"/>
  <circle id="svg_46" fill="#6c63ff" r="7.27772" cy="436.07425" cx="647.59152"/>
  <circle id="svg_47" fill="#f2f2f2" r="6.16141" cy="625.53337" cx="779.50336"/>
  <circle id="svg_70" opacity="0.2" r="7.09663" cy="245.46917" cx="758.90885"/>
  <defs>
   <path d="m36.53,52.53c7.56,6.93 68.07,62.38 75.64,69.31c7.87,7.22 7.87,18.92 0,26.14c-7.47,6.84 -67.17,61.55 -74.63,68.39c-7.88,7.22 -20.65,7.22 -28.53,0c-7.87,-7.22 -7.87,-18.92 0,-26.14c4.03,-3.69 24.15,-22.13 60.37,-55.32c-36.83,-33.74 -57.28,-52.49 -61.38,-56.24c-7.87,-7.22 -7.87,-18.92 0,-26.14c3.94,-3.61 9.11,-5.41 14.27,-5.41c5.16,0 10.32,1.8 14.26,5.41z" id="svg_255"/>
   <path d="m109.68,193.91c-3.09,0 -5.59,2.25 -5.59,5.03c0,2.21 0,19.89 0,22.1c0,2.77 2.5,5.02 5.59,5.02c14.2,0 127.85,0 142.06,0c3.08,0 5.58,-2.25 5.58,-5.02c0,-2.21 0,-19.89 0,-22.1c0,-2.78 -2.5,-5.03 -5.58,-5.03c-28.42,0 -127.86,0 -142.06,0z" id="svg_254"/>
   <path d="m128.38,164.91c-17.29,-1.46 -32.25,-9.89 -43.25,-24.37c-8.43,-11.1 -13.67,-23.8 -15.59,-37.74c-1.8,-13.08 -0.47,-26.84 3.85,-39.81c9.75,-29.29 33.45,-51.83 63.39,-60.29c3.01,-0.86 6.14,0.9 6.98,3.92c0.85,3.03 -0.9,6.16 -3.91,7.01c-26.33,7.45 -47.16,27.24 -55.72,52.96c-3.77,11.32 -4.93,23.3 -3.37,34.65c1.65,11.98 6.15,22.89 13.38,32.41c9.13,12.03 20.97,18.73 35.19,19.94c18.55,1.57 34.88,-6.68 40.82,-12.25c2.29,-2.14 5.87,-2.02 8.01,0.28c2.13,2.29 2.01,5.89 -0.28,8.03c-8.6,8.06 -25.97,15.49 -44.09,15.49c-1.8,0 -3.61,-0.08 -5.41,-0.23z" id="svg_252"/>
   <path d="m228.21,149.96c-0.01,-1.83 0.1,-3.7 0.39,-5.6c0.54,-3.79 1.74,-7.7 3.69,-11.36c1.92,-3.66 4.61,-7.07 7.86,-9.71c3.23,-2.66 6.95,-4.58 10.78,-5.52c3.11,-0.75 6.25,1.16 7,4.28c0.5,2.04 -0.15,4.08 -1.51,5.47c-0.05,0.04 -0.38,0.38 -0.42,0.42c-1.05,1.06 -2.07,2.03 -3,3.02c-0.94,0.98 -1.78,1.98 -2.57,2.98c-1.57,2.02 -2.89,4.09 -4.02,6.4c-1.13,2.3 -2.1,4.8 -3.09,7.53c-0.16,0.43 -1.39,3.85 -1.54,4.28c-0.55,1.48 -1.11,3.04 -1.89,4.66c-1.42,2.97 -4.97,4.23 -7.93,2.8c-1.76,-0.85 -2.92,-2.46 -3.27,-4.25c0,0 -0.01,-0.04 -0.02,-0.1c-0.3,-2.31 -0.45,-4.08 -0.46,-5.3z" id="svg_247"/>
   <path d="m135.07,135.17c-6.38,-3.78 -11.11,-9.65 -12.98,-16.1c-1.05,-3.61 1.02,-7.4 4.62,-8.45c3.61,-1.05 7.38,1.02 8.43,4.64c1.88,6.49 10.37,12.23 20.02,10.43c3.69,-0.69 7.24,1.76 7.92,5.46c0.69,3.7 -1.75,7.26 -5.44,7.95c-2.02,0.38 -4.06,0.57 -6.09,0.57c-5.8,0 -11.5,-1.54 -16.48,-4.5z" id="svg_242"/>
   <path d="m229.57,143.19c-3.02,-6.04 -12.42,-10.14 -21.57,-6.62c-3.51,1.35 -7.44,-0.41 -8.78,-3.93c-1.34,-3.51 0.41,-7.46 3.91,-8.81c7.44,-2.86 15.58,-2.94 22.92,-0.23c6.95,2.56 12.66,7.47 15.66,13.47c1.69,3.37 0.34,7.46 -3.02,9.16c-0.98,0.49 -2.02,0.72 -3.04,0.72c-2.49,0 -4.89,-1.37 -6.08,-3.76z" id="svg_237"/>
   <path d="m237.71,131.32c-6.48,0.27 -9.5,5.06 -10.36,8.83c0.92,0.93 1.68,1.95 2.22,3.04c1.19,2.39 3.59,3.76 6.08,3.76c1.02,0 2.06,-0.23 3.04,-0.72c3.36,-1.7 4.71,-5.79 3.02,-9.16c-1.03,-2.06 -2.39,-3.99 -4,-5.75z" id="svg_232"/>
   <path d="m153.5,189.15c-5.56,-8.1 -6.65,-17 -3.07,-25.07c3.33,-7.52 10.63,-13.42 17.75,-14.35c3.72,-0.49 7.13,2.14 7.62,5.88c0.48,3.73 -2.14,7.16 -5.86,7.64c-1.85,0.24 -5.45,2.65 -7.1,6.38c-1.63,3.66 -1,7.63 1.85,11.78c2.13,3.1 1.35,7.35 -1.74,9.49c-1.18,0.81 -2.52,1.2 -3.85,1.2c-2.16,0 -4.28,-1.03 -5.6,-2.95z" id="svg_227"/>
   <path d="m162.84,178c-5.12,0.11 -9.85,3.04 -12.28,5.9c0.78,1.77 1.76,3.53 2.94,5.25c1.32,1.92 3.44,2.95 5.6,2.95c1.33,0 2.67,-0.39 3.85,-1.2c3.09,-2.14 3.87,-6.39 1.74,-9.49c-0.79,-1.15 -1.41,-2.29 -1.85,-3.41z" id="svg_222"/>
   <path d="m219.06,182.28c-3.75,-0.15 -6.67,-3.32 -6.52,-7.08c0.19,-5.04 -1.4,-8.73 -4.73,-10.95c-3.38,-2.26 -7.7,-2.37 -9.39,-1.58c-3.4,1.59 -7.44,0.11 -9.03,-3.31c-1.58,-3.41 -0.1,-7.47 3.3,-9.05c6.51,-3.04 15.83,-1.97 22.66,2.59c7.32,4.89 11.15,13 10.77,22.83c-0.15,3.67 -3.16,6.55 -6.79,6.55c-0.09,0 -0.18,0 -0.27,0z" id="svg_217"/>
   <path d="m212.16,170.72c0.31,1.35 0.44,2.84 0.38,4.48c-0.15,3.76 2.77,6.93 6.52,7.08c0.09,0 0.18,0 0.27,0c3.63,0 6.64,-2.88 6.78,-6.55c0.1,-2.36 -0.06,-4.62 -0.44,-6.76c-5.11,-1.26 -10.33,-0.06 -13.51,1.75z" id="svg_212"/>
   <path d="m126.71,110.62c-3.6,1.05 -5.67,4.84 -4.62,8.45c0.81,2.81 2.17,5.51 3.97,7.97c3.82,-1.09 8.3,-3.99 11.6,-7.21c-1.19,-1.41 -2.06,-2.97 -2.52,-4.57c-1.05,-3.62 -4.82,-5.69 -8.43,-4.64z" id="svg_207"/>
   <path d="m182.31,103.38c-17.01,0 -30.79,15.35 -30.79,34.29c0,18.93 13.78,28.38 30.79,28.38c17,0 30.79,-9.44 30.79,-28.38c0,-18.94 -13.79,-34.29 -30.79,-34.29z" id="svg_202"/>
   <path d="m128.61,69.97c-7.95,0 -14.4,6.47 -14.4,14.45c0,7.98 6.45,14.45 14.4,14.45c7.96,0 14.4,-6.47 14.4,-14.45c0,-7.98 -6.44,-14.45 -14.4,-14.45z" id="svg_197"/>
   <path d="m128.61,79.5c-2.7,0 -4.89,2.2 -4.89,4.92c0,2.71 2.19,4.91 4.89,4.91c2.71,0 4.9,-2.2 4.9,-4.91c0,-2.72 -2.19,-4.92 -4.9,-4.92z" id="svg_192"/>
   <path d="m236.91,69.97c-7.95,0 -14.4,6.47 -14.4,14.45c0,7.98 6.45,14.45 14.4,14.45c7.95,0 14.4,-6.47 14.4,-14.45c0,-7.98 -6.45,-14.45 -14.4,-14.45z" id="svg_187"/>
   <path d="m236.91,79.5c-2.7,0 -4.9,2.2 -4.9,4.92c0,2.71 2.2,4.91 4.9,4.91c2.7,0 4.89,-2.2 4.89,-4.91c0,-2.72 -2.19,-4.92 -4.89,-4.92z" id="svg_182"/>
   <path d="m239.44,70.27c0,-32.16 -24.63,-54.85 -56.68,-54.85c-32.05,0 -56.68,22.69 -56.68,54.85c0,26.21 27.02,54.07 56.68,54.07c29.67,0 56.68,-27.86 56.68,-54.07z" id="svg_177"/>
   <path d="m185.64,54.14c-1.68,1.36 -4.08,1.36 -5.76,0c-4.41,-3.55 -9.98,-5.7 -16.06,-5.76c-14.78,-0.16 -26.58,12.25 -26.41,27.09c0.19,16.55 5.83,27.26 12.51,37.33c9.47,7.06 20.94,11.54 32.84,11.54c11.9,0 23.37,-4.48 32.84,-11.54c6.68,-10.07 12.32,-20.78 12.51,-37.33c0.17,-14.84 -11.63,-27.25 -26.41,-27.09c-6.08,0.06 -11.65,2.21 -16.06,5.76z" id="svg_172"/>
   <path d="m182.76,99.55c0,2.27 -1.83,4.11 -4.1,4.11c-0.64,0 -1.25,-0.15 -1.79,-0.42c0,0.58 0,5.16 0,5.73c0,3.26 2.64,5.91 5.89,5.91c3.25,0 5.89,-2.65 5.89,-5.91c0,-0.57 0,-5.15 0,-5.73c-0.54,0.27 -1.15,0.42 -1.79,0.42c-2.26,0 -4.1,-1.84 -4.1,-4.11z" id="svg_167"/>
   <path d="m157.74,94.63c0,-0.54 -0.44,-0.98 -0.98,-0.98c-0.53,0 -0.97,0.44 -0.97,0.98c0,1.67 -1.35,3.03 -3.02,3.03c-1.67,0 -3.02,-1.36 -3.02,-3.03c0,-3.89 3.15,-7.04 7.01,-7.04c3.87,0 7.02,3.15 7.02,7.04c0,1.67 -1.35,3.03 -3.02,3.03c-1.67,0 -3.02,-1.36 -3.02,-3.03z" id="svg_162"/>
   <path d="m209.73,94.63c0,-0.54 -0.44,-0.98 -0.97,-0.98c-0.54,0 -0.98,0.44 -0.98,0.98c0,1.67 -1.35,3.03 -3.02,3.03c-1.67,0 -3.02,-1.36 -3.02,-3.03c0,-3.89 3.15,-7.04 7.02,-7.04c3.87,0 7.01,3.15 7.01,7.04c0,1.67 -1.35,3.03 -3.02,3.03c-1.67,0 -3.02,-1.36 -3.02,-3.03z" id="svg_157"/>
   <path d="m177.67,111.92c1.01,1.76 2.91,2.96 5.09,2.96c2.18,0 4.08,-1.2 5.1,-2.96c-1.18,-1.15 -3.02,-1.9 -5.1,-1.9c-2.08,0 -3.92,0.75 -5.09,1.9z" id="svg_152"/>
   <path d="m185.36,91.5c-1.57,1.87 -4.44,1.87 -6.01,0c-0.09,-0.11 -0.82,-0.98 -0.91,-1.09c-0.47,-0.56 -0.07,-1.42 0.66,-1.42c0.65,0 5.86,0 6.51,0c0.73,0 1.13,0.86 0.66,1.42c-0.18,0.21 -0.82,0.98 -0.91,1.09z" id="svg_147"/>
  </defs>
  <g id="svg_258">
   <g transform="matrix(0.626496 0 0 0.626496 0 0)" id="svg_257">
    <title>Layer 1</title>
    <g id="svg_142">
     <g id="svg_143">
      <g id="svg_249">
       <use xlink:href="#svg_252" fill="#7d7060" id="svg_253" y="211.56976" x="1039.29204"/>
       <g id="svg_250">
        <use xlink:href="#svg_252" fill-opacity="0" stroke="#000000" stroke-opacity="0" id="svg_251" y="211.56976" x="1039.29204"/>
       </g>
      </g>
      <g id="svg_244">
       <use xlink:href="#svg_247" fill="#f7da70" id="svg_248" y="211.56976" x="1039.29204"/>
       <g id="svg_245">
        <use xlink:href="#svg_247" fill-opacity="0" stroke="#000000" stroke-opacity="0" id="svg_246" y="211.56976" x="1039.29204"/>
       </g>
      </g>
      <g id="svg_239">
       <use xlink:href="#svg_242" fill="#6e614f" id="svg_243" y="211.56976" x="1039.29204"/>
       <g id="svg_240">
        <use xlink:href="#svg_242" fill-opacity="0" stroke="#000000" stroke-opacity="0" id="svg_241" y="211.56976" x="1039.29204"/>
       </g>
      </g>
      <g id="svg_234">
       <use xlink:href="#svg_237" fill="#6e614f" id="svg_238" y="211.56976" x="1039.29204"/>
       <g id="svg_235">
        <use xlink:href="#svg_237" fill-opacity="0" stroke="#000000" stroke-opacity="0" id="svg_236" y="211.56976" x="1039.29204"/>
       </g>
      </g>
      <g id="svg_229">
       <use xlink:href="#svg_232" fill="#f8e9b4" id="svg_233" y="211.56976" x="1039.29204"/>
       <g id="svg_230">
        <use xlink:href="#svg_232" fill-opacity="0" stroke="#000000" stroke-opacity="0" id="svg_231" y="211.56976" x="1039.29204"/>
       </g>
      </g>
      <g id="svg_224">
       <use xlink:href="#svg_227" fill="#6e614f" id="svg_228" y="211.56976" x="1039.29204"/>
       <g id="svg_225">
        <use xlink:href="#svg_227" fill-opacity="0" stroke="#000000" stroke-opacity="0" id="svg_226" y="211.56976" x="1039.29204"/>
       </g>
      </g>
      <g id="svg_219">
       <use xlink:href="#svg_222" fill="#f8e9b4" id="svg_223" y="211.56976" x="1039.29204"/>
       <g id="svg_220">
        <use xlink:href="#svg_222" fill-opacity="0" stroke="#000000" stroke-opacity="0" id="svg_221" y="211.56976" x="1039.29204"/>
       </g>
      </g>
      <g id="svg_214">
       <use xlink:href="#svg_217" fill="#6e614f" id="svg_218" y="211.56976" x="1039.29204"/>
       <g id="svg_215">
        <use xlink:href="#svg_217" fill-opacity="0" stroke="#000000" stroke-opacity="0" id="svg_216" y="211.56976" x="1039.29204"/>
       </g>
      </g>
      <g id="svg_209">
       <use xlink:href="#svg_212" fill="#f8e9b4" id="svg_213" y="211.56976" x="1039.29204"/>
       <g id="svg_210">
        <use xlink:href="#svg_212" fill-opacity="0" stroke="#000000" stroke-opacity="0" id="svg_211" y="211.56976" x="1039.29204"/>
       </g>
      </g>
      <g id="svg_204">
       <use xlink:href="#svg_207" fill="#f8e9b4" id="svg_208" y="211.56976" x="1039.29204"/>
       <g id="svg_205">
        <use xlink:href="#svg_207" fill-opacity="0" stroke="#000000" stroke-opacity="0" id="svg_206" y="211.56976" x="1039.29204"/>
       </g>
      </g>
      <g id="svg_199">
       <use xlink:href="#svg_202" fill="#6e614f" id="svg_203" y="211.56976" x="1039.29204"/>
       <g id="svg_200">
        <use xlink:href="#svg_202" fill-opacity="0" stroke="#000000" stroke-opacity="0" id="svg_201" y="211.56976" x="1039.29204"/>
       </g>
      </g>
      <g id="svg_194">
       <use xlink:href="#svg_197" fill="#7d7060" id="svg_198" y="211.56976" x="1039.29204"/>
       <g id="svg_195">
        <use xlink:href="#svg_197" fill-opacity="0" stroke="#000000" stroke-opacity="0" id="svg_196" y="211.56976" x="1039.29204"/>
       </g>
      </g>
      <g id="svg_189">
       <use xlink:href="#svg_192" fill="#f8ecc8" id="svg_193" y="211.56976" x="1039.29204"/>
       <g id="svg_190">
        <use xlink:href="#svg_192" fill-opacity="0" stroke="#000000" stroke-opacity="0" id="svg_191" y="211.56976" x="1039.29204"/>
       </g>
      </g>
      <g id="svg_184">
       <use xlink:href="#svg_187" fill="#7d7060" id="svg_188" y="211.56976" x="1039.29204"/>
       <g id="svg_185">
        <use xlink:href="#svg_187" fill-opacity="0" stroke="#000000" stroke-opacity="0" id="svg_186" y="211.56976" x="1039.29204"/>
       </g>
      </g>
      <g id="svg_179">
       <use xlink:href="#svg_182" fill="#f8ecc8" id="svg_183" y="211.56976" x="1039.29204"/>
       <g id="svg_180">
        <use xlink:href="#svg_182" fill-opacity="0" stroke="#000000" stroke-opacity="0" id="svg_181" y="211.56976" x="1039.29204"/>
       </g>
      </g>
      <g id="svg_174">
       <use xlink:href="#svg_177" fill="#6e614f" id="svg_178" y="211.56976" x="1039.29204"/>
       <g id="svg_175">
        <use xlink:href="#svg_177" fill-opacity="0" stroke="#000000" stroke-opacity="0" id="svg_176" y="211.56976" x="1039.29204"/>
       </g>
      </g>
      <g id="svg_169">
       <use xlink:href="#svg_172" fill="#f8e9b4" id="svg_173" y="211.56976" x="1039.29204"/>
       <g id="svg_170">
        <use xlink:href="#svg_172" fill-opacity="0" stroke="#000000" stroke-opacity="0" id="svg_171" y="211.56976" x="1039.29204"/>
       </g>
      </g>
      <g id="svg_164">
       <use xlink:href="#svg_167" fill="#edbcb9" id="svg_168" y="211.56976" x="1039.29204"/>
       <g id="svg_165">
        <use xlink:href="#svg_167" fill-opacity="0" stroke="#000000" stroke-opacity="0" id="svg_166" y="211.56976" x="1039.29204"/>
       </g>
      </g>
      <g id="svg_159">
       <use xlink:href="#svg_162" fill="#4a5058" id="svg_163" y="211.56976" x="1039.29204"/>
       <g id="svg_160">
        <use xlink:href="#svg_162" fill-opacity="0" stroke="#000000" stroke-opacity="0" id="svg_161" y="211.56976" x="1039.29204"/>
       </g>
      </g>
      <g id="svg_154">
       <use xlink:href="#svg_157" fill="#4a5058" id="svg_158" y="211.56976" x="1039.29204"/>
       <g id="svg_155">
        <use xlink:href="#svg_157" fill-opacity="0" stroke="#000000" stroke-opacity="0" id="svg_156" y="211.56976" x="1039.29204"/>
       </g>
      </g>
      <g id="svg_149">
       <use xlink:href="#svg_152" fill="#d46d59" id="svg_153" y="211.56976" x="1039.29204"/>
       <g id="svg_150">
        <use xlink:href="#svg_152" fill-opacity="0" stroke="#000000" stroke-opacity="0" id="svg_151" y="211.56976" x="1039.29204"/>
       </g>
      </g>
      <g id="svg_144">
       <use xlink:href="#svg_147" fill="#edbcb9" id="svg_148" y="211.56976" x="1039.29204"/>
       <g id="svg_145">
        <use xlink:href="#svg_147" fill-opacity="0" stroke="#000000" stroke-opacity="0" id="svg_146" y="211.56976" x="1039.29204"/>
       </g>
      </g>
     </g>
    </g>
   </g>
  </g>
  <defs>
   <path d="m36.53,52.53c7.56,6.93 68.07,62.38 75.64,69.31c7.87,7.22 7.87,18.92 0,26.14c-7.47,6.84 -67.17,61.55 -74.63,68.39c-7.88,7.22 -20.65,7.22 -28.53,0c-7.87,-7.22 -7.87,-18.92 0,-26.14c4.03,-3.69 24.15,-22.13 60.37,-55.32c-36.83,-33.74 -57.28,-52.49 -61.38,-56.24c-7.87,-7.22 -7.87,-18.92 0,-26.14c3.94,-3.61 9.11,-5.41 14.27,-5.41c5.16,0 10.32,1.8 14.26,5.41z" id="svg_488"/>
   <path d="m109.68,193.91c-3.09,0 -5.59,2.25 -5.59,5.03c0,2.21 0,19.89 0,22.1c0,2.77 2.5,5.02 5.59,5.02c14.2,0 127.85,0 142.06,0c3.08,0 5.58,-2.25 5.58,-5.02c0,-2.21 0,-19.89 0,-22.1c0,-2.78 -2.5,-5.03 -5.58,-5.03c-28.42,0 -127.86,0 -142.06,0z" id="svg_487"/>
   <path d="m128.38,164.91c-17.29,-1.46 -32.25,-9.89 -43.25,-24.37c-8.43,-11.1 -13.67,-23.8 -15.59,-37.74c-1.8,-13.08 -0.47,-26.84 3.85,-39.81c9.75,-29.29 33.45,-51.83 63.39,-60.29c3.01,-0.86 6.14,0.9 6.98,3.92c0.85,3.03 -0.9,6.16 -3.91,7.01c-26.33,7.45 -47.16,27.24 -55.72,52.96c-3.77,11.32 -4.93,23.3 -3.37,34.65c1.65,11.98 6.15,22.89 13.38,32.41c9.13,12.03 20.97,18.73 35.19,19.94c18.55,1.57 34.88,-6.68 40.82,-12.25c2.29,-2.14 5.87,-2.02 8.01,0.28c2.13,2.29 2.01,5.89 -0.28,8.03c-8.6,8.06 -25.97,15.49 -44.09,15.49c-1.8,0 -3.61,-0.08 -5.41,-0.23z" id="svg_485"/>
   <path d="m228.21,149.96c-0.01,-1.83 0.1,-3.7 0.39,-5.6c0.54,-3.79 1.74,-7.7 3.69,-11.36c1.92,-3.66 4.61,-7.07 7.86,-9.71c3.23,-2.66 6.95,-4.58 10.78,-5.52c3.11,-0.75 6.25,1.16 7,4.28c0.5,2.04 -0.15,4.08 -1.51,5.47c-0.05,0.04 -0.38,0.38 -0.42,0.42c-1.05,1.06 -2.07,2.03 -3,3.02c-0.94,0.98 -1.78,1.98 -2.57,2.98c-1.57,2.02 -2.89,4.09 -4.02,6.4c-1.13,2.3 -2.1,4.8 -3.09,7.53c-0.16,0.43 -1.39,3.85 -1.54,4.28c-0.55,1.48 -1.11,3.04 -1.89,4.66c-1.42,2.97 -4.97,4.23 -7.93,2.8c-1.76,-0.85 -2.92,-2.46 -3.27,-4.25c0,0 -0.01,-0.04 -0.02,-0.1c-0.3,-2.31 -0.45,-4.08 -0.46,-5.3z" id="svg_480"/>
   <path d="m135.07,135.17c-6.38,-3.78 -11.11,-9.65 -12.98,-16.1c-1.05,-3.61 1.02,-7.4 4.62,-8.45c3.61,-1.05 7.38,1.02 8.43,4.64c1.88,6.49 10.37,12.23 20.02,10.43c3.69,-0.69 7.24,1.76 7.92,5.46c0.69,3.7 -1.75,7.26 -5.44,7.95c-2.02,0.38 -4.06,0.57 -6.09,0.57c-5.8,0 -11.5,-1.54 -16.48,-4.5z" id="svg_475"/>
   <path d="m229.57,143.19c-3.02,-6.04 -12.42,-10.14 -21.57,-6.62c-3.51,1.35 -7.44,-0.41 -8.78,-3.93c-1.34,-3.51 0.41,-7.46 3.91,-8.81c7.44,-2.86 15.58,-2.94 22.92,-0.23c6.95,2.56 12.66,7.47 15.66,13.47c1.69,3.37 0.34,7.46 -3.02,9.16c-0.98,0.49 -2.02,0.72 -3.04,0.72c-2.49,0 -4.89,-1.37 -6.08,-3.76z" id="svg_470"/>
   <path d="m237.71,131.32c-6.48,0.27 -9.5,5.06 -10.36,8.83c0.92,0.93 1.68,1.95 2.22,3.04c1.19,2.39 3.59,3.76 6.08,3.76c1.02,0 2.06,-0.23 3.04,-0.72c3.36,-1.7 4.71,-5.79 3.02,-9.16c-1.03,-2.06 -2.39,-3.99 -4,-5.75z" id="svg_465"/>
   <path d="m153.5,189.15c-5.56,-8.1 -6.65,-17 -3.07,-25.07c3.33,-7.52 10.63,-13.42 17.75,-14.35c3.72,-0.49 7.13,2.14 7.62,5.88c0.48,3.73 -2.14,7.16 -5.86,7.64c-1.85,0.24 -5.45,2.65 -7.1,6.38c-1.63,3.66 -1,7.63 1.85,11.78c2.13,3.1 1.35,7.35 -1.74,9.49c-1.18,0.81 -2.52,1.2 -3.85,1.2c-2.16,0 -4.28,-1.03 -5.6,-2.95z" id="svg_460"/>
   <path d="m162.84,178c-5.12,0.11 -9.85,3.04 -12.28,5.9c0.78,1.77 1.76,3.53 2.94,5.25c1.32,1.92 3.44,2.95 5.6,2.95c1.33,0 2.67,-0.39 3.85,-1.2c3.09,-2.14 3.87,-6.39 1.74,-9.49c-0.79,-1.15 -1.41,-2.29 -1.85,-3.41z" id="svg_455"/>
   <path d="m219.06,182.28c-3.75,-0.15 -6.67,-3.32 -6.52,-7.08c0.19,-5.04 -1.4,-8.73 -4.73,-10.95c-3.38,-2.26 -7.7,-2.37 -9.39,-1.58c-3.4,1.59 -7.44,0.11 -9.03,-3.31c-1.58,-3.41 -0.1,-7.47 3.3,-9.05c6.51,-3.04 15.83,-1.97 22.66,2.59c7.32,4.89 11.15,13 10.77,22.83c-0.15,3.67 -3.16,6.55 -6.79,6.55c-0.09,0 -0.18,0 -0.27,0z" id="svg_450"/>
   <path d="m212.16,170.72c0.31,1.35 0.44,2.84 0.38,4.48c-0.15,3.76 2.77,6.93 6.52,7.08c0.09,0 0.18,0 0.27,0c3.63,0 6.64,-2.88 6.78,-6.55c0.1,-2.36 -0.06,-4.62 -0.44,-6.76c-5.11,-1.26 -10.33,-0.06 -13.51,1.75z" id="svg_445"/>
   <path d="m126.71,110.62c-3.6,1.05 -5.67,4.84 -4.62,8.45c0.81,2.81 2.17,5.51 3.97,7.97c3.82,-1.09 8.3,-3.99 11.6,-7.21c-1.19,-1.41 -2.06,-2.97 -2.52,-4.57c-1.05,-3.62 -4.82,-5.69 -8.43,-4.64z" id="svg_440"/>
   <path d="m182.31,103.38c-17.01,0 -30.79,15.35 -30.79,34.29c0,18.93 13.78,28.38 30.79,28.38c17,0 30.79,-9.44 30.79,-28.38c0,-18.94 -13.79,-34.29 -30.79,-34.29z" id="svg_435"/>
   <path d="m128.61,69.97c-7.95,0 -14.4,6.47 -14.4,14.45c0,7.98 6.45,14.45 14.4,14.45c7.96,0 14.4,-6.47 14.4,-14.45c0,-7.98 -6.44,-14.45 -14.4,-14.45z" id="svg_430"/>
   <path d="m128.61,79.5c-2.7,0 -4.89,2.2 -4.89,4.92c0,2.71 2.19,4.91 4.89,4.91c2.71,0 4.9,-2.2 4.9,-4.91c0,-2.72 -2.19,-4.92 -4.9,-4.92z" id="svg_425"/>
   <path d="m236.91,69.97c-7.95,0 -14.4,6.47 -14.4,14.45c0,7.98 6.45,14.45 14.4,14.45c7.95,0 14.4,-6.47 14.4,-14.45c0,-7.98 -6.45,-14.45 -14.4,-14.45z" id="svg_420"/>
   <path d="m236.91,79.5c-2.7,0 -4.9,2.2 -4.9,4.92c0,2.71 2.2,4.91 4.9,4.91c2.7,0 4.89,-2.2 4.89,-4.91c0,-2.72 -2.19,-4.92 -4.89,-4.92z" id="svg_415"/>
   <path d="m239.44,70.27c0,-32.16 -24.63,-54.85 -56.68,-54.85c-32.05,0 -56.68,22.69 -56.68,54.85c0,26.21 27.02,54.07 56.68,54.07c29.67,0 56.68,-27.86 56.68,-54.07z" id="svg_410"/>
   <path d="m185.64,54.14c-1.68,1.36 -4.08,1.36 -5.76,0c-4.41,-3.55 -9.98,-5.7 -16.06,-5.76c-14.78,-0.16 -26.58,12.25 -26.41,27.09c0.19,16.55 5.83,27.26 12.51,37.33c9.47,7.06 20.94,11.54 32.84,11.54c11.9,0 23.37,-4.48 32.84,-11.54c6.68,-10.07 12.32,-20.78 12.51,-37.33c0.17,-14.84 -11.63,-27.25 -26.41,-27.09c-6.08,0.06 -11.65,2.21 -16.06,5.76z" id="svg_405"/>
   <path d="m182.76,99.55c0,2.27 -1.83,4.11 -4.1,4.11c-0.64,0 -1.25,-0.15 -1.79,-0.42c0,0.58 0,5.16 0,5.73c0,3.26 2.64,5.91 5.89,5.91c3.25,0 5.89,-2.65 5.89,-5.91c0,-0.57 0,-5.15 0,-5.73c-0.54,0.27 -1.15,0.42 -1.79,0.42c-2.26,0 -4.1,-1.84 -4.1,-4.11z" id="svg_400"/>
   <path d="m157.74,94.63c0,-0.54 -0.44,-0.98 -0.98,-0.98c-0.53,0 -0.97,0.44 -0.97,0.98c0,1.67 -1.35,3.03 -3.02,3.03c-1.67,0 -3.02,-1.36 -3.02,-3.03c0,-3.89 3.15,-7.04 7.01,-7.04c3.87,0 7.02,3.15 7.02,7.04c0,1.67 -1.35,3.03 -3.02,3.03c-1.67,0 -3.02,-1.36 -3.02,-3.03z" id="svg_395"/>
   <path d="m209.73,94.63c0,-0.54 -0.44,-0.98 -0.97,-0.98c-0.54,0 -0.98,0.44 -0.98,0.98c0,1.67 -1.35,3.03 -3.02,3.03c-1.67,0 -3.02,-1.36 -3.02,-3.03c0,-3.89 3.15,-7.04 7.02,-7.04c3.87,0 7.01,3.15 7.01,7.04c0,1.67 -1.35,3.03 -3.02,3.03c-1.67,0 -3.02,-1.36 -3.02,-3.03z" id="svg_390"/>
   <path d="m177.67,111.92c1.01,1.76 2.91,2.96 5.09,2.96c2.18,0 4.08,-1.2 5.1,-2.96c-1.18,-1.15 -3.02,-1.9 -5.1,-1.9c-2.08,0 -3.92,0.75 -5.09,1.9z" id="svg_385"/>
   <path d="m185.36,91.5c-1.57,1.87 -4.44,1.87 -6.01,0c-0.09,-0.11 -0.82,-0.98 -0.91,-1.09c-0.47,-0.56 -0.07,-1.42 0.66,-1.42c0.65,0 5.86,0 6.51,0c0.73,0 1.13,0.86 0.66,1.42c-0.18,0.21 -0.82,0.98 -0.91,1.09z" id="svg_380"/>
  </defs>
 </g>
</svg>