<?xml version="1.0"?>
<svg xmlns="http://www.w3.org/2000/svg" xmlns:xlink="http://www.w3.org/1999/xlink" xmlns:svgjs="http://svgjs.com/svgjs" version="1.1" width="512" height="512" x="0" y="0" viewBox="0 0 707.158 707.158" style="enable-background:new 0 0 512 512" xml:space="preserve" class=""><g><g xmlns="http://www.w3.org/2000/svg"><path d="m619.027 309.908h-119.628v-38.349c0-6.555-5.314-11.869-11.869-11.869h-35.054c-2.184-.008-4.321-.636-6.162-1.81-56.666-35.709-128.802-35.709-185.468 0-1.842 1.174-3.978 1.801-6.162 1.81h-35.054c-6.555 0-11.869 5.314-11.869 11.869v38.349h-119.63c-6.555 0-11.869 5.314-11.869 11.869v294.702c0 6.555 5.314 11.869 11.869 11.869h119.627v38.349c0 6.555 5.314 11.869 11.869 11.869h35.056c2.184.009 4.32.636 6.162 1.81 56.665 35.708 128.799 35.708 185.465 0 1.842-1.174 3.978-1.801 6.162-1.81h35.056c6.555 0 11.869-5.314 11.869-11.869v-38.349h119.629c6.555 0 11.869-5.314 11.869-11.869v-294.702c.001-6.555-5.313-11.869-11.868-11.869z" fill="#000000" data-original="#e8a772" style="" class=""/><g fill="#c17e51"><path d="m157.29 534.919c-7.656.002-13.864-6.203-13.866-13.859 0-.002 0-.005 0-.007v-103.859c0-7.658 6.208-13.866 13.866-13.866s13.866 6.208 13.866 13.866v103.859c.002 7.656-6.203 13.864-13.859 13.866-.002 0-.004 0-.007 0z" fill="#ffffff" data-original="#c17e51" style="" class=""/><path d="m212.788 482.989h-55.498c-7.656.002-13.864-6.203-13.866-13.859 0-.002 0-.005 0-.007v-51.929c-.002-7.656 6.203-13.864 13.859-13.866h.007 55.497c21.998 0 39.83 17.833 39.83 39.83.001 21.999-17.832 39.831-39.829 39.831zm-41.632-27.732h41.631c6.682 0 12.099-5.417 12.099-12.099s-5.417-12.099-12.099-12.099h-41.631z" fill="#ffffff" data-original="#c17e51" style="" class=""/><path d="m523.903 482.989h-55.497c-7.656.002-13.864-6.203-13.866-13.859 0-.002 0-.005 0-.007v-51.929c-.002-7.656 6.203-13.864 13.859-13.866h.007 55.497c21.998 0 39.83 17.833 39.83 39.83 0 21.999-17.833 39.831-39.83 39.831zm-41.632-27.732h41.631c6.682 0 12.099-5.417 12.099-12.099s-5.417-12.099-12.099-12.099h-41.631z" fill="#ffffff" data-original="#c17e51" style="" class=""/><path d="m523.903 534.919h-55.497c-7.656.002-13.864-6.203-13.866-13.859 0-.002 0-.005 0-.007v-51.929c-.002-7.656 6.203-13.864 13.858-13.866h.008 55.497c21.998 0 39.83 17.833 39.83 39.83 0 21.998-17.833 39.83-39.83 39.831zm-41.632-27.732h41.631c6.682 0 12.099-5.417 12.099-12.099s-5.417-12.099-12.099-12.099h-41.631z" fill="#ffffff" data-original="#c17e51" style="" class=""/><path d="m362.496 534.919h-16.967c-26.888-.031-48.678-21.819-48.713-48.707v-69.018c0-7.658 6.208-13.866 13.866-13.866s13.866 6.208 13.866 13.866v69.018c.015 11.58 9.401 20.964 20.982 20.975h16.967c11.58-.011 20.966-9.394 20.982-20.975v-69.018c0-7.658 6.208-13.866 13.866-13.866s13.866 6.208 13.866 13.866v69.018c-.037 26.888-21.827 48.675-48.715 48.707z" fill="#ffffff" data-original="#c17e51" style="" class=""/></g><path d="m353.579 119.674c-7.656.002-13.864-6.203-13.866-13.859 0-.002 0-.005 0-.007v-91.942c0-7.658 6.208-13.866 13.866-13.866s13.866 6.208 13.866 13.866v91.943c.002 7.656-6.203 13.864-13.859 13.866-.002-.001-.005-.001-.007-.001z" fill="#000000" data-original="#8c8c8c" style="" class=""/><path d="m223.187 161.191c-4.111.005-8.013-1.816-10.65-4.969l-60.697-72.634c-4.913-5.878-4.131-14.626 1.747-19.539s14.626-4.131 19.539 1.747l60.697 72.633c4.912 5.877 4.129 14.624-1.748 19.535-2.493 2.083-5.639 3.225-8.888 3.227z" fill="#000000" data-original="#8c8c8c" style="" class=""/><path d="m483.971 161.191c-7.66-.003-13.866-6.215-13.863-13.874.001-3.249 1.143-6.395 3.227-8.888l60.697-72.633c4.913-5.878 13.661-6.66 19.539-1.747s6.66 13.661 1.747 19.539l-60.697 72.633c-2.638 3.154-6.539 4.974-10.65 4.97z" fill="#000000" data-original="#8c8c8c" style="" class=""/></g></g></svg>
